<svg class="marks" width="649" height="364" viewBox="0 0 649 364" version="1.1" xmlns="http://www.w3.org/2000/svg" xmlns:xlink="http://www.w3.org/1999/xlink"><g transform="translate(43,27)"><g class="mark-group role-frame root"><g transform="translate(0,0)"><path class="background" d="M0.5,0.5h600v300h-600Z" style="fill: none; stroke: #ddd;"></path><g><g class="mark-group role-axis"><g transform="translate(0.5,300.5)"><path class="background" d="M0,0h0v0h0Z" style="pointer-events: none; fill: none;"></path><g><g class="mark-rule role-axis-grid" style="pointer-events: none;"><line transform="translate(0,-300)" x2="0" y2="300" style="fill: none; stroke: #ddd; stroke-width: 1; opacity: 1;"></line><line transform="translate(51,-300)" x2="0" y2="300" style="fill: none; stroke: #ddd; stroke-width: 1; opacity: 1;"></line><line transform="translate(97,-300)" x2="0" y2="300" style="fill: none; stroke: #ddd; stroke-width: 1; opacity: 1;"></line><line transform="translate(148,-300)" x2="0" y2="300" style="fill: none; stroke: #ddd; stroke-width: 1; opacity: 1;"></line><line transform="translate(197,-300)" x2="0" y2="300" style="fill: none; stroke: #ddd; stroke-width: 1; opacity: 1;"></line><line transform="translate(248,-300)" x2="0" y2="300" style="fill: none; stroke: #ddd; stroke-width: 1; opacity: 1;"></line><line transform="translate(298,-300)" x2="0" y2="300" style="fill: none; stroke: #ddd; stroke-width: 1; opacity: 1;"></line><line transform="translate(348,-300)" x2="0" y2="300" style="fill: none; stroke: #ddd; stroke-width: 1; opacity: 1;"></line><line transform="translate(399,-300)" x2="0" y2="300" style="fill: none; stroke: #ddd; stroke-width: 1; opacity: 1;"></line><line transform="translate(449,-300)" x2="0" y2="300" style="fill: none; stroke: #ddd; stroke-width: 1; opacity: 1;"></line><line transform="translate(500,-300)" x2="0" y2="300" style="fill: none; stroke: #ddd; stroke-width: 1; opacity: 1;"></line><line transform="translate(549,-300)" x2="0" y2="300" style="fill: none; stroke: #ddd; stroke-width: 1; opacity: 1;"></line><line transform="translate(600,-300)" x2="0" y2="300" style="fill: none; stroke: #ddd; stroke-width: 1; opacity: 1;"></line></g></g></g></g><g class="mark-group role-axis"><g transform="translate(0.5,0.5)"><path class="background" d="M0,0h0v0h0Z" style="pointer-events: none; fill: none;"></path><g><g class="mark-rule role-axis-grid" style="pointer-events: none;"><line transform="translate(0,300)" x2="600" y2="0" style="fill: none; stroke: #ddd; stroke-width: 1; opacity: 1;"></line><line transform="translate(0,270)" x2="600" y2="0" style="fill: none; stroke: #ddd; stroke-width: 1; opacity: 1;"></line><line transform="translate(0,240)" x2="600" y2="0" style="fill: none; stroke: #ddd; stroke-width: 1; opacity: 1;"></line><line transform="translate(0,210)" x2="600" y2="0" style="fill: none; stroke: #ddd; stroke-width: 1; opacity: 1;"></line><line transform="translate(0,180)" x2="600" y2="0" style="fill: none; stroke: #ddd; stroke-width: 1; opacity: 1;"></line><line transform="translate(0,150)" x2="600" y2="0" style="fill: none; stroke: #ddd; stroke-width: 1; opacity: 1;"></line><line transform="translate(0,120)" x2="600" y2="0" style="fill: none; stroke: #ddd; stroke-width: 1; opacity: 1;"></line><line transform="translate(0,90)" x2="600" y2="0" style="fill: none; stroke: #ddd; stroke-width: 1; opacity: 1;"></line><line transform="translate(0,60)" x2="600" y2="0" style="fill: none; stroke: #ddd; stroke-width: 1; opacity: 1;"></line><line transform="translate(0,30)" x2="600" y2="0" style="fill: none; stroke: #ddd; stroke-width: 1; opacity: 1;"></line><line transform="translate(0,0)" x2="600" y2="0" style="fill: none; stroke: #ddd; stroke-width: 1; opacity: 1;"></line></g></g></g></g><g class="mark-group role-axis"><g transform="translate(0.5,300.5)"><path class="background" d="M0,0h0v0h0Z" style="pointer-events: none; fill: none;"></path><g><g class="mark-rule role-axis-tick" style="pointer-events: none;"><line transform="translate(0,0)" x2="0" y2="5" style="fill: none; stroke: #888; stroke-width: 1; opacity: 1;"></line><line transform="translate(51,0)" x2="0" y2="5" style="fill: none; stroke: #888; stroke-width: 1; opacity: 1;"></line><line transform="translate(97,0)" x2="0" y2="5" style="fill: none; stroke: #888; stroke-width: 1; opacity: 1;"></line><line transform="translate(148,0)" x2="0" y2="5" style="fill: none; stroke: #888; stroke-width: 1; opacity: 1;"></line><line transform="translate(197,0)" x2="0" y2="5" style="fill: none; stroke: #888; stroke-width: 1; opacity: 1;"></line><line transform="translate(248,0)" x2="0" y2="5" style="fill: none; stroke: #888; stroke-width: 1; opacity: 1;"></line><line transform="translate(298,0)" x2="0" y2="5" style="fill: none; stroke: #888; stroke-width: 1; opacity: 1;"></line><line transform="translate(348,0)" x2="0" y2="5" style="fill: none; stroke: #888; stroke-width: 1; opacity: 1;"></line><line transform="translate(399,0)" x2="0" y2="5" style="fill: none; stroke: #888; stroke-width: 1; opacity: 1;"></line><line transform="translate(449,0)" x2="0" y2="5" style="fill: none; stroke: #888; stroke-width: 1; opacity: 1;"></line><line transform="translate(500,0)" x2="0" y2="5" style="fill: none; stroke: #888; stroke-width: 1; opacity: 1;"></line><line transform="translate(549,0)" x2="0" y2="5" style="fill: none; stroke: #888; stroke-width: 1; opacity: 1;"></line><line transform="translate(600,0)" x2="0" y2="5" style="fill: none; stroke: #888; stroke-width: 1; opacity: 1;"></line></g><g class="mark-text role-axis-label" style="pointer-events: none;"><text text-anchor="start" transform="translate(0,15)" style="font-family: sans-serif; font-size: 10px; fill: #000; opacity: 1;">Jan</text><text text-anchor="middle" transform="translate(50.95890410958904,15)" style="font-family: sans-serif; font-size: 10px; fill: #000; opacity: 1;">Feb</text><text text-anchor="middle" transform="translate(96.98630136986301,15)" style="font-family: sans-serif; font-size: 10px; fill: #000; opacity: 1;">Mar</text><text text-anchor="middle" transform="translate(147.94520547945206,15)" style="font-family: sans-serif; font-size: 10px; fill: #000; opacity: 1;">Apr</text><text text-anchor="middle" transform="translate(197.26027397260273,15)" style="font-family: sans-serif; font-size: 10px; fill: #000; opacity: 1;">May</text><text text-anchor="middle" transform="translate(248.2191780821918,15)" style="font-family: sans-serif; font-size: 10px; fill: #000; opacity: 1;">Jun</text><text text-anchor="middle" transform="translate(297.5342465753425,15)" style="font-family: sans-serif; font-size: 10px; fill: #000; opacity: 1;">Jul</text><text text-anchor="middle" transform="translate(348.4931506849315,15)" style="font-family: sans-serif; font-size: 10px; fill: #000; opacity: 1;">Aug</text><text text-anchor="middle" transform="translate(399.45205479452056,15)" style="font-family: sans-serif; font-size: 10px; fill: #000; opacity: 1;">Sep</text><text text-anchor="middle" transform="translate(448.76712328767127,15)" style="font-family: sans-serif; font-size: 10px; fill: #000; opacity: 1;">Oct</text><text text-anchor="middle" transform="translate(499.7260273972603,15)" style="font-family: sans-serif; font-size: 10px; fill: #000; opacity: 1;">Nov</text><text text-anchor="middle" transform="translate(549.0410958904109,15)" style="font-family: sans-serif; font-size: 10px; fill: #000; opacity: 1;">Dec</text><text text-anchor="end" transform="translate(600,15)" style="font-family: sans-serif; font-size: 10px; fill: #000; opacity: 1;">Jan</text></g><g class="mark-rule role-axis-domain" style="pointer-events: none;"><line transform="translate(0,0)" x2="600" y2="0" style="fill: none; stroke: #888; stroke-width: 1; opacity: 1;"></line></g><g class="mark-text role-axis-title" style="pointer-events: none;"><text text-anchor="middle" transform="translate(300,30)" style="font-family: sans-serif; font-size: 11px; font-weight: bold; fill: #000; opacity: 1;">Date</text></g></g></g></g><g class="mark-group role-axis"><g transform="translate(0.5,0.5)"><path class="background" d="M0,0h0v0h0Z" style="pointer-events: none; fill: none;"></path><g><g class="mark-rule role-axis-tick" style="pointer-events: none;"><line transform="translate(0,300)" x2="-5" y2="0" style="fill: none; stroke: #888; stroke-width: 1; opacity: 1;"></line><line transform="translate(0,270)" x2="-5" y2="0" style="fill: none; stroke: #888; stroke-width: 1; opacity: 1;"></line><line transform="translate(0,240)" x2="-5" y2="0" style="fill: none; stroke: #888; stroke-width: 1; opacity: 1;"></line><line transform="translate(0,210)" x2="-5" y2="0" style="fill: none; stroke: #888; stroke-width: 1; opacity: 1;"></line><line transform="translate(0,180)" x2="-5" y2="0" style="fill: none; stroke: #888; stroke-width: 1; opacity: 1;"></line><line transform="translate(0,150)" x2="-5" y2="0" style="fill: none; stroke: #888; stroke-width: 1; opacity: 1;"></line><line transform="translate(0,120)" x2="-5" y2="0" style="fill: none; stroke: #888; stroke-width: 1; opacity: 1;"></line><line transform="translate(0,90)" x2="-5" y2="0" style="fill: none; stroke: #888; stroke-width: 1; opacity: 1;"></line><line transform="translate(0,60)" x2="-5" y2="0" style="fill: none; stroke: #888; stroke-width: 1; opacity: 1;"></line><line transform="translate(0,30)" x2="-5" y2="0" style="fill: none; stroke: #888; stroke-width: 1; opacity: 1;"></line><line transform="translate(0,0)" x2="-5" y2="0" style="fill: none; stroke: #888; stroke-width: 1; opacity: 1;"></line></g><g class="mark-text role-axis-label" style="pointer-events: none;"><text text-anchor="end" transform="translate(-7,303)" style="font-family: sans-serif; font-size: 10px; fill: #000; opacity: 1;">-10</text><text text-anchor="end" transform="translate(-7,273)" style="font-family: sans-serif; font-size: 10px; fill: #000; opacity: 1;">-5</text><text text-anchor="end" transform="translate(-7,243)" style="font-family: sans-serif; font-size: 10px; fill: #000; opacity: 1;">0</text><text text-anchor="end" transform="translate(-7,213)" style="font-family: sans-serif; font-size: 10px; fill: #000; opacity: 1;">5</text><text text-anchor="end" transform="translate(-7,183)" style="font-family: sans-serif; font-size: 10px; fill: #000; opacity: 1;">10</text><text text-anchor="end" transform="translate(-7,153)" style="font-family: sans-serif; font-size: 10px; fill: #000; opacity: 1;">15</text><text text-anchor="end" transform="translate(-7,123)" style="font-family: sans-serif; font-size: 10px; fill: #000; opacity: 1;">20</text><text text-anchor="end" transform="translate(-7,93)" style="font-family: sans-serif; font-size: 10px; fill: #000; opacity: 1;">25</text><text text-anchor="end" transform="translate(-7,63)" style="font-family: sans-serif; font-size: 10px; fill: #000; opacity: 1;">30</text><text text-anchor="end" transform="translate(-7,33)" style="font-family: sans-serif; font-size: 10px; fill: #000; opacity: 1;">35</text><text text-anchor="end" transform="translate(-7,3)" style="font-family: sans-serif; font-size: 10px; fill: #000; opacity: 1;">40</text></g><g class="mark-rule role-axis-domain" style="pointer-events: none;"><line transform="translate(0,300)" x2="0" y2="-300" style="fill: none; stroke: #888; stroke-width: 1; opacity: 1;"></line></g><g class="mark-text role-axis-title" style="pointer-events: none;"><text text-anchor="middle" transform="translate(-27,150) rotate(-90) translate(0,-2)" style="font-family: sans-serif; font-size: 11px; font-weight: bold; fill: #000; opacity: 1;">Daily Temperature Range (C)</text></g></g></g></g><g class="mark-area role-mark marks"><path d="M0.821917808219178,163.2L2.465753424657534,176.39999999999998L4.10958904109589,169.8L5.7534246575342465,166.8L7.397260273972602,166.8L9.04109589041096,166.8L10.684931506849315,180L12.32876712328767,169.8L13.972602739726028,180L15.616438356164384,163.2L17.26027397260274,153.6L18.9041095890411,173.39999999999998L20.54794520547945,176.39999999999998L22.19178082191781,173.39999999999998L23.835616438356166,173.39999999999998L25.47945205479452,169.8L27.123287671232877,160.2L28.767123287671232,156.6L30.410958904109588,180L32.054794520547944,180L33.6986301369863,180L35.342465753424655,183.60000000000002L36.986301369863014,166.8L38.630136986301366,153.6L40.273972602739725,136.79999999999998L41.917808219178085,143.4L43.56164383561644,173.39999999999998L45.20547945205479,166.8L46.84931506849315,166.8L48.49315068493151,186.60000000000002L50.136986301369866,183.60000000000002L51.780821917808225,169.8L53.42465753424657,173.39999999999998L55.06849315068493,153.6L56.71232876712329,146.4L58.35616438356165,156.6L60,143.4L61.64383561643835,146.4L63.28767123287671,150L64.93150684931507,160.2L66.57534246575342,163.2L68.21917808219179,163.2L69.86301369863013,139.79999999999998L71.5068493150685,146.4L73.15068493150685,153.6L74.79452054794521,160.2L76.43835616438356,150L78.08219178082192,143.4L79.72602739726028,166.8L81.36986301369863,176.39999999999998L83.01369863013697,173.39999999999998L84.65753424657534,166.8L86.30136986301369,169.8L87.94520547945206,163.2L89.58904109589041,173.39999999999998L91.23287671232877,166.8L92.87671232876713,156.6L94.52054794520548,163.2L96.16438356164385,153.6L97.80821917808218,150L99.45205479452055,156.6L101.0958904109589,153.6L102.73972602739725,156.6L104.38356164383562,146.4L106.02739726027397,150L107.67123287671234,139.79999999999998L109.31506849315069,136.79999999999998L110.95890410958903,150L112.6027397260274,160.2L114.24657534246575,153.6L115.89041095890411,133.2L117.53424657534246,136.79999999999998L119.17808219178082,153.6L120.82191780821918,139.79999999999998L122.46575342465754,156.6L124.1095890410959,160.2L125.75342465753424,146.4L127.39726027397259,146.4L129.04109589041096,156.6L130.68493150684932,160.2L132.3287671232877,169.8L133.97260273972603,163.2L135.61643835616437,126.60000000000002L137.26027397260273,139.79999999999998L138.9041095890411,116.4L140.54794520547946,130.2L142.1917808219178,143.4L143.83561643835617,130.2L145.47945205479454,120L147.12328767123287,116.4L148.76712328767124,136.79999999999998L150.4109589041096,139.79999999999998L152.05479452054794,139.79999999999998L153.6986301369863,153.6L155.34246575342465,139.79999999999998L156.986301369863,156.6L158.63013698630138,113.4L160.27397260273975,113.4L161.91780821917808,120L163.56164383561642,133.2L165.2054794520548,136.79999999999998L166.84931506849315,143.4L168.49315068493152,116.4L170.13698630136986,120L171.78082191780823,143.4L173.42465753424656,133.2L175.06849315068496,126.60000000000002L176.7123287671233,126.60000000000002L178.35616438356163,113.4L180,103.20000000000002L181.64383561643834,120L183.28767123287673,100.20000000000002L184.93150684931507,109.80000000000001L186.57534246575344,113.4L188.21917808219177,109.80000000000001L189.8630136986301,116.4L191.5068493150685,90L193.15068493150685,143.4L194.7945205479452,90L196.43835616438355,73.20000000000005L198.08219178082192,63.60000000000002L199.72602739726028,116.4L201.36986301369865,109.80000000000001L203.013698630137,90L204.65753424657532,66.6L206.3013698630137,56.39999999999998L207.94520547945206,96.60000000000002L209.58904109589042,96.60000000000002L211.23287671232876,79.79999999999998L212.87671232876713,83.4L214.52054794520546,76.79999999999995L216.16438356164386,93.60000000000002L217.8082191780822,79.79999999999998L219.45205479452054,73.20000000000005L221.0958904109589,79.79999999999998L222.73972602739724,109.80000000000001L224.38356164383563,120L226.02739726027397,86.39999999999998L227.67123287671234,109.80000000000001L229.31506849315068,100.20000000000002L230.958904109589,86.39999999999998L232.6027397260274,93.60000000000002L234.24657534246575,120L235.8904109589041,130.2L237.53424657534245,106.79999999999998L239.17808219178082,106.79999999999998L240.82191780821918,93.60000000000002L242.46575342465755,73.20000000000005L244.1095890410959,83.4L245.75342465753423,103.20000000000002L247.39726027397262,90L249.04109589041096,103.20000000000002L250.68493150684932,100.20000000000002L252.32876712328766,106.79999999999998L253.97260273972603,83.4L255.6164383561644,79.79999999999998L257.26027397260276,63.60000000000002L258.90410958904107,53.39999999999998L260.54794520547944,56.39999999999998L262.1917808219178,66.6L263.83561643835617,86.39999999999998L265.47945205479454,93.60000000000002L267.1232876712329,109.80000000000001L268.7671232876712,96.60000000000002L270.4109589041096,73.20000000000005L272.05479452054794,60L273.6986301369863,96.60000000000002L275.3424657534247,86.39999999999998L276.986301369863,93.60000000000002L278.63013698630135,86.39999999999998L280.2739726027397,90L281.9178082191781,86.39999999999998L283.56164383561645,86.39999999999998L285.20547945205476,83.4L286.8493150684931,86.39999999999998L288.4931506849315,56.39999999999998L290.13698630136986,49.79999999999998L291.7808219178082,40.19999999999999L293.4246575342466,56.39999999999998L295.0684931506849,60L296.7123287671233,36.60000000000002L298.35616438356163,33.60000000000002L300,36.60000000000002L301.64383561643837,40.19999999999999L303.2876712328767,40.19999999999999L304.93150684931504,43.19999999999999L306.5753424657534,63.60000000000002L308.21917808219183,76.79999999999995L309.86301369863014,60L311.5068493150685,60L313.1506849315069,66.6L314.79452054794524,53.39999999999998L316.43835616438355,46.79999999999998L318.0821917808219,63.60000000000002L319.7260273972603,73.20000000000005L321.3698630136986,53.39999999999998L323.01369863013696,53.39999999999998L324.6575342465754,73.20000000000005L326.30136986301375,40.19999999999999L327.94520547945206,30L329.5890410958904,79.79999999999998L331.2328767123288,96.60000000000002L332.8767123287671,83.4L334.52054794520546,53.39999999999998L336.16438356164383,53.39999999999998L337.8082191780822,53.39999999999998L339.4520547945205,53.39999999999998L341.09589041095893,70.20000000000002L342.7397260273973,56.39999999999998L344.3835616438356,46.79999999999998L346.027397260274,33.60000000000002L347.67123287671234,33.60000000000002L349.3150684931507,40.19999999999999L350.958904109589,56.39999999999998L352.6027397260274,49.79999999999998L354.24657534246575,36.60000000000002L355.89041095890406,36.60000000000002L357.5342465753425,56.39999999999998L359.17808219178085,53.39999999999998L360.8219178082192,70.20000000000002L362.4657534246575,70.20000000000002L364.1095890410959,56.39999999999998L365.75342465753425,26.399999999999977L367.3972602739726,56.39999999999998L369.04109589041093,56.39999999999998L370.6849315068493,66.6L372.32876712328766,53.39999999999998L373.9726027397261,33.60000000000002L375.6164383561644,43.19999999999999L377.26027397260276,60L378.9041095890411,49.79999999999998L380.54794520547944,86.39999999999998L382.1917808219178,73.20000000000005L383.83561643835617,66.6L385.4794520547945,73.20000000000005L387.12328767123284,90L388.7671232876712,66.6L390.41095890410963,53.39999999999998L392.05479452054794,63.60000000000002L393.6986301369863,79.79999999999998L395.3424657534247,96.60000000000002L396.98630136986304,83.4L398.63013698630135,73.20000000000005L400.2739726027397,73.20000000000005L401.9178082191781,73.20000000000005L403.5616438356164,90L405.20547945205476,93.60000000000002L406.8493150684932,73.20000000000005L408.49315068493155,46.79999999999998L410.13698630136986,46.79999999999998L411.7808219178082,79.79999999999998L413.4246575342466,83.4L415.0684931506849,79.79999999999998L416.71232876712327,36.60000000000002L418.35616438356163,79.79999999999998L420,70.20000000000002L421.64383561643837,60L423.28767123287673,56.39999999999998L424.9315068493151,93.60000000000002L426.57534246575347,73.20000000000005L428.2191780821918,73.20000000000005L429.86301369863014,86.39999999999998L431.5068493150685,93.60000000000002L433.1506849315068,83.4L434.7945205479452,106.79999999999998L436.43835616438355,116.4L438.082191780822,106.79999999999998L439.7260273972603,109.80000000000001L441.36986301369865,120L443.013698630137,103.20000000000002L444.6575342465753,90L446.3013698630137,109.80000000000001L447.94520547945206,113.4L449.5890410958904,100.20000000000002L451.23287671232873,123.60000000000002L452.8767123287671,106.79999999999998L454.5205479452055,103.20000000000002L456.1643835616439,96.60000000000002L457.8082191780822,86.39999999999998L459.45205479452056,96.60000000000002L461.09589041095893,113.4L462.73972602739724,123.60000000000002L464.3835616438356,113.4L466.027397260274,130.2L467.6712328767123,130.2L469.31506849315065,113.4L470.95890410958907,133.2L472.60273972602744,113.4L474.24657534246575,116.4L475.8904109589041,123.60000000000002L477.5342465753425,123.60000000000002L479.17808219178085,106.79999999999998L480.82191780821915,133.2L482.4657534246575,143.4L484.1095890410959,143.4L485.7534246575342,153.6L487.3972602739726,150L489.041095890411,123.60000000000002L490.68493150684935,163.2L492.32876712328766,143.4L493.972602739726,150L495.6164383561644,139.79999999999998L497.2602739726027,136.79999999999998L498.90410958904107,146.4L500.54794520547944,133.2L502.1917808219178,150L503.83561643835617,146.4L505.47945205479454,133.2L507.1232876712329,150L508.76712328767127,139.79999999999998L510.4109589041096,153.6L512.054794520548,160.2L513.6986301369863,160.2L515.3424657534247,173.39999999999998L516.986301369863,143.4L518.6301369863013,146.4L520.2739726027397,156.6L521.9178082191781,173.39999999999998L523.5616438356165,176.39999999999998L525.2054794520548,180L526.8493150684932,160.2L528.4931506849315,163.2L530.1369863013698,160.2L531.7808219178082,173.39999999999998L533.4246575342465,173.39999999999998L535.0684931506848,180L536.7123287671233,163.2L538.3561643835617,169.8L540,156.6L541.6438356164383,150L543.2876712328767,153.6L544.931506849315,163.2L546.5753424657535,163.2L548.2191780821918,150L549.8630136986301,160.2L551.5068493150685,176.39999999999998L553.1506849315069,146.4L554.7945205479452,169.8L556.4383561643835,163.2L558.082191780822,163.2L559.7260273972603,153.6L561.3698630136986,146.4L563.013698630137,143.4L564.6575342465753,126.60000000000002L566.3013698630136,153.6L567.945205479452,173.39999999999998L569.5890410958905,180L571.2328767123288,163.2L572.8767123287671,166.8L574.5205479452055,180L576.1643835616438,186.60000000000002L577.8082191780821,183.60000000000002L579.4520547945206,173.39999999999998L581.0958904109589,163.2L582.7397260273972,163.2L584.3835616438356,176.39999999999998L586.027397260274,166.8L587.6712328767123,190.2L589.3150684931506,193.2L590.9589041095891,199.8L592.6027397260274,183.60000000000002L594.2465753424657,183.60000000000002L595.8904109589041,196.8L597.5342465753424,186.60000000000002L599.1780821917808,190.2L599.1780821917808,256.2L597.5342465753424,252.6L595.8904109589041,236.4L594.2465753424657,229.8L592.6027397260274,240L590.9589041095891,240L589.3150684931506,229.8L587.6712328767123,226.8L586.027397260274,223.2L584.3835616438356,223.2L582.7397260273972,250.2L581.0958904109589,236.4L579.4520547945206,240L577.8082191780821,236.4L576.1643835616438,229.8L574.5205479452055,223.2L572.8767123287671,236.4L571.2328767123288,233.4L569.5890410958905,220.2L567.945205479452,243L566.3013698630136,249.6L564.6575342465753,236.4L563.013698630137,269.4L561.3698630136986,279.6L559.7260273972603,282.6L558.082191780822,265.8L556.4383561643835,269.4L554.7945205479452,252.6L553.1506849315069,243L551.5068493150685,259.2L549.8630136986301,259.2L548.2191780821918,269.4L546.5753424657535,265.8L544.931506849315,256.2L543.2876712328767,249.6L541.6438356164383,246L540,240L538.3561643835617,236.4L536.7123287671233,240L535.0684931506848,240L533.4246575342465,243L531.7808219178082,236.4L530.1369863013698,226.8L528.4931506849315,243L526.8493150684932,252.6L525.2054794520548,252.6L523.5616438356165,249.6L521.9178082191781,252.6L520.2739726027397,236.4L518.6301369863013,240L516.986301369863,233.4L515.3424657534247,243.6L513.6986301369863,233.4L512.054794520548,233.4L510.4109589041096,216.6L508.76712328767127,199.8L507.1232876712329,196.8L505.47945205479454,220.2L503.83561643835617,213.6L502.1917808219178,196.8L500.54794520547944,196.8L498.90410958904107,190.2L497.2602739726027,206.4L495.6164383561644,220.2L493.972602739726,196.8L492.32876712328766,199.8L490.68493150684935,196.8L489.041095890411,199.8L487.3972602739726,203.39999999999998L485.7534246575342,206.4L484.1095890410959,220.2L482.4657534246575,213.6L480.82191780821915,203.39999999999998L479.17808219178085,193.2L477.5342465753425,199.8L475.8904109589041,203.39999999999998L474.24657534246575,190.2L472.60273972602744,210L470.95890410958907,216.6L469.31506849315065,199.8L467.6712328767123,186.60000000000002L466.027397260274,196.8L464.3835616438356,190.2L462.73972602739724,206.4L461.09589041095893,193.2L459.45205479452056,193.2L457.8082191780822,193.2L456.1643835616439,190.2L454.5205479452055,206.4L452.8767123287671,193.2L451.23287671232873,183.60000000000002L449.5890410958904,186.60000000000002L447.94520547945206,193.2L446.3013698630137,186.60000000000002L444.6575342465753,183.60000000000002L443.013698630137,196.8L441.36986301369865,196.8L439.7260273972603,183.60000000000002L438.082191780822,180L436.43835616438355,190.2L434.7945205479452,193.2L433.1506849315068,183.60000000000002L431.5068493150685,180L429.86301369863014,180L428.2191780821918,169.8L426.57534246575347,169.8L424.9315068493151,183.60000000000002L423.28767123287673,180L421.64383561643837,176.39999999999998L420,180L418.35616438356163,180L416.71232876712327,186.60000000000002L415.0684931506849,169.8L413.4246575342466,160.2L411.7808219178082,160.2L410.13698630136986,160.2L408.49315068493155,169.8L406.8493150684932,186.60000000000002L405.20547945205476,180L403.5616438356164,176.39999999999998L401.9178082191781,180L400.2739726027397,176.39999999999998L398.63013698630135,176.39999999999998L396.98630136986304,163.2L395.3424657534247,160.2L393.6986301369863,166.8L392.05479452054794,160.2L390.41095890410963,166.8L388.7671232876712,169.8L387.12328767123284,180L385.4794520547945,156.6L383.83561643835617,166.8L382.1917808219178,173.39999999999998L380.54794520547944,156.6L378.9041095890411,150L377.26027397260276,153.6L375.6164383561644,156.6L373.9726027397261,153.6L372.32876712328766,156.6L370.6849315068493,156.6L369.04109589041093,150L367.3972602739726,150L365.75342465753425,160.2L364.1095890410959,166.8L362.4657534246575,153.6L360.8219178082192,160.2L359.17808219178085,160.2L357.5342465753425,156.6L355.89041095890406,166.8L354.24657534246575,153.6L352.6027397260274,163.2L350.958904109589,166.8L349.3150684931507,160.2L347.67123287671234,160.2L346.027397260274,160.2L344.3835616438356,160.2L342.7397260273973,166.8L341.09589041095893,166.8L339.4520547945205,163.2L337.8082191780822,166.8L336.16438356164383,166.8L334.52054794520546,173.39999999999998L332.8767123287671,166.8L331.2328767123288,163.2L329.5890410958904,160.2L327.94520547945206,160.2L326.30136986301375,169.8L324.6575342465754,156.6L323.01369863013696,160.2L321.3698630136986,160.2L319.7260273972603,163.2L318.0821917808219,173.39999999999998L316.43835616438355,160.2L314.79452054794524,166.8L313.1506849315069,173.39999999999998L311.5068493150685,163.2L309.86301369863014,160.2L308.21917808219183,163.2L306.5753424657534,173.39999999999998L304.93150684931504,176.39999999999998L303.2876712328767,183.60000000000002L301.64383561643837,176.39999999999998L300,169.8L298.35616438356163,166.8L296.7123287671233,163.2L295.0684931506849,163.2L293.4246575342466,169.8L291.7808219178082,186.60000000000002L290.13698630136986,176.39999999999998L288.4931506849315,173.39999999999998L286.8493150684931,183.60000000000002L285.20547945205476,183.60000000000002L283.56164383561645,173.39999999999998L281.9178082191781,176.39999999999998L280.2739726027397,180L278.63013698630135,180L276.986301369863,180L275.3424657534247,180L273.6986301369863,186.60000000000002L272.05479452054794,183.60000000000002L270.4109589041096,180L268.7671232876712,183.60000000000002L267.1232876712329,169.8L265.47945205479454,180L263.83561643835617,180L262.1917808219178,190.2L260.54794520547944,190.2L258.90410958904107,186.60000000000002L257.26027397260276,203.39999999999998L255.6164383561644,190.2L253.97260273972603,186.60000000000002L252.32876712328766,183.60000000000002L250.68493150684932,176.39999999999998L249.04109589041096,176.39999999999998L247.39726027397262,180L245.75342465753423,186.60000000000002L244.1095890410959,193.2L242.46575342465755,180L240.82191780821918,180L239.17808219178082,186.60000000000002L237.53424657534245,186.60000000000002L235.8904109589041,186.60000000000002L234.24657534246575,199.8L232.6027397260274,196.8L230.958904109589,190.2L229.31506849315068,183.60000000000002L227.67123287671234,196.8L226.02739726027397,193.2L224.38356164383563,199.8L222.73972602739724,183.60000000000002L221.0958904109589,186.60000000000002L219.45205479452054,193.2L217.8082191780822,183.60000000000002L216.16438356164386,199.8L214.52054794520546,213.6L212.87671232876713,216.6L211.23287671232876,199.8L209.58904109589042,190.2L207.94520547945206,203.39999999999998L206.3013698630137,210L204.65753424657532,210L203.013698630137,203.39999999999998L201.36986301369865,196.8L199.72602739726028,206.4L198.08219178082192,220.2L196.43835616438355,213.6L194.7945205479452,199.8L193.15068493150685,213.6L191.5068493150685,203.39999999999998L189.8630136986301,213.6L188.21917808219177,206.4L186.57534246575344,203.39999999999998L184.93150684931507,216.6L183.28767123287673,210L181.64383561643834,213.6L180,206.4L178.35616438356163,210L176.7123287671233,206.4L175.06849315068496,216.6L173.42465753424656,220.2L171.78082191780823,220.2L170.13698630136986,223.2L168.49315068493152,220.2L166.84931506849315,213.6L165.2054794520548,210L163.56164383561642,199.8L161.91780821917808,203.39999999999998L160.27397260273975,203.39999999999998L158.63013698630138,229.8L156.986301369863,220.2L155.34246575342465,223.2L153.6986301369863,223.2L152.05479452054794,220.2L150.4109589041096,213.6L148.76712328767124,213.6L147.12328767123287,226.8L145.47945205479454,210L143.83561643835617,203.39999999999998L142.1917808219178,196.8L140.54794520547946,199.8L138.9041095890411,206.4L137.26027397260273,226.8L135.61643835616437,236.4L133.97260273972603,236.4L132.3287671232877,236.4L130.68493150684932,233.4L129.04109589041096,229.8L127.39726027397259,246.6L125.75342465753424,243.6L124.1095890410959,236.4L122.46575342465754,216.6L120.82191780821918,213.6L119.17808219178082,233.4L117.53424657534246,236.4L115.89041095890411,236.4L114.24657534246575,223.2L112.6027397260274,216.6L110.95890410958903,233.4L109.31506849315069,236.4L107.67123287671234,250.2L106.02739726027397,240L104.38356164383562,233.4L102.73972602739725,243L101.0958904109589,240L99.45205479452055,223.2L97.80821917808218,233.4L96.16438356164385,243.6L94.52054794520548,253.2L92.87671232876713,246.6L91.23287671232877,223.2L89.58904109589041,226.8L87.94520547945206,236.4L86.30136986301369,223.2L84.65753424657534,216.6L83.01369863013697,233.4L81.36986301369863,229.8L79.72602739726028,216.6L78.08219178082192,213.6L76.43835616438356,220.2L74.79452054794521,236.4L73.15068493150685,233.4L71.5068493150685,213.6L69.86301369863013,210L68.21917808219179,213.6L66.57534246575342,229.8L64.93150684931507,240L63.28767123287671,243L61.64383561643835,269.4L60,276L58.35616438356165,273L56.71232876712329,252.6L55.06849315068493,240L53.42465753424657,233.4L51.780821917808225,223.2L50.136986301369866,220.2L48.49315068493151,233.4L46.84931506849315,220.2L45.20547945205479,236.4L43.56164383561644,253.2L41.917808219178085,236.4L40.273972602739725,233.4L38.630136986301366,233.4L36.986301369863014,233.4L35.342465753424655,250.2L33.6986301369863,250.2L32.054794520547944,246.6L30.410958904109588,256.8L28.767123287671232,256.8L27.123287671232877,256.8L25.47945205479452,263.4L23.835616438356166,259.8L22.19178082191781,253.2L20.54794520547945,266.4L18.9041095890411,263.4L17.26027397260274,256.8L15.616438356164384,243.6L13.972602739726028,229.8L12.32876712328767,229.8L10.684931506849315,223.2L9.04109589041096,243L7.397260273972602,243L5.7534246575342465,236.4L4.10958904109589,250.2L2.465753424657534,246.6L0.821917808219178,259.2Z" style="fill: #4c78a8; opacity: 0.7;"></path></g><g class="mark-text role-title" style="pointer-events: none;"><text text-anchor="middle" transform="translate(300,-12)" style="font-family: sans-serif; font-size: 13px; font-weight: bold; fill: #000; opacity: 1;">Seattle Temperature Range, 2012-2015</text></g></g></g></g></g></svg>