<svg class="marks" width="263" height="247" viewBox="0 0 263 247" version="1.1" xmlns="http://www.w3.org/2000/svg" xmlns:xlink="http://www.w3.org/1999/xlink"><g transform="translate(51,10)"><g class="mark-group role-frame root"><g transform="translate(0,0)"><path class="background" d="M0.5,0.5h200v200h-200Z" style="fill: none; stroke: #ddd;"></path><g><g class="mark-group role-axis"><g transform="translate(0.5,200.5)"><path class="background" d="M0,0h0v0h0Z" style="pointer-events: none; fill: none;"></path><g><g class="mark-rule role-axis-grid" style="pointer-events: none;"><line transform="translate(0,-200)" x2="0" y2="200" style="fill: none; stroke: #ddd; stroke-width: 1; opacity: 1;"></line><line transform="translate(63,-200)" x2="0" y2="200" style="fill: none; stroke: #ddd; stroke-width: 1; opacity: 1;"></line><line transform="translate(125,-200)" x2="0" y2="200" style="fill: none; stroke: #ddd; stroke-width: 1; opacity: 1;"></line><line transform="translate(188,-200)" x2="0" y2="200" style="fill: none; stroke: #ddd; stroke-width: 1; opacity: 1;"></line></g></g></g></g><g class="mark-group role-axis"><g transform="translate(0.5,0.5)"><path class="background" d="M0,0h0v0h0Z" style="pointer-events: none; fill: none;"></path><g><g class="mark-rule role-axis-grid" style="pointer-events: none;"><line transform="translate(0,185)" x2="200" y2="0" style="fill: none; stroke: #ddd; stroke-width: 1; opacity: 1;"></line><line transform="translate(0,154)" x2="200" y2="0" style="fill: none; stroke: #ddd; stroke-width: 1; opacity: 1;"></line><line transform="translate(0,123)" x2="200" y2="0" style="fill: none; stroke: #ddd; stroke-width: 1; opacity: 1;"></line><line transform="translate(0,92)" x2="200" y2="0" style="fill: none; stroke: #ddd; stroke-width: 1; opacity: 1;"></line><line transform="translate(0,62)" x2="200" y2="0" style="fill: none; stroke: #ddd; stroke-width: 1; opacity: 1;"></line><line transform="translate(0,31)" x2="200" y2="0" style="fill: none; stroke: #ddd; stroke-width: 1; opacity: 1;"></line><line transform="translate(0,0)" x2="200" y2="0" style="fill: none; stroke: #ddd; stroke-width: 1; opacity: 1;"></line></g></g></g></g><g class="mark-group role-axis"><g transform="translate(0.5,200.5)"><path class="background" d="M0,0h0v0h0Z" style="pointer-events: none; fill: none;"></path><g><g class="mark-rule role-axis-tick" style="pointer-events: none;"><line transform="translate(0,0)" x2="0" y2="5" style="fill: none; stroke: #888; stroke-width: 1; opacity: 1;"></line><line transform="translate(63,0)" x2="0" y2="5" style="fill: none; stroke: #888; stroke-width: 1; opacity: 1;"></line><line transform="translate(125,0)" x2="0" y2="5" style="fill: none; stroke: #888; stroke-width: 1; opacity: 1;"></line><line transform="translate(188,0)" x2="0" y2="5" style="fill: none; stroke: #888; stroke-width: 1; opacity: 1;"></line></g><g class="mark-text role-axis-label" style="pointer-events: none;"><text text-anchor="start" transform="translate(0,15)" style="font-family: sans-serif; font-size: 10px; fill: #000; opacity: 1;">0</text><text text-anchor="middle" transform="translate(62.5,15)" style="font-family: sans-serif; font-size: 10px; fill: #000; opacity: 1;">50,000</text><text text-anchor="middle" transform="translate(125,15)" style="font-family: sans-serif; font-size: 10px; fill: #000; opacity: 1;">100,000</text><text text-anchor="middle" transform="translate(187.5,15)" style="font-family: sans-serif; font-size: 10px; fill: #000; opacity: 1;">150,000</text></g><g class="mark-rule role-axis-domain" style="pointer-events: none;"><line transform="translate(0,0)" x2="200" y2="0" style="fill: none; stroke: #888; stroke-width: 1; opacity: 1;"></line></g><g class="mark-text role-axis-title" style="pointer-events: none;"><text text-anchor="middle" transform="translate(100,30)" style="font-family: sans-serif; font-size: 11px; font-weight: bold; fill: #000; opacity: 1;">Sum of Weight_in_lbs</text></g></g></g></g><g class="mark-group role-axis"><g transform="translate(0.5,0.5)"><path class="background" d="M0,0h0v0h0Z" style="pointer-events: none; fill: none;"></path><g><g class="mark-rule role-axis-tick" style="pointer-events: none;"><line transform="translate(0,185)" x2="-5" y2="0" style="fill: none; stroke: #888; stroke-width: 1; opacity: 1;"></line><line transform="translate(0,154)" x2="-5" y2="0" style="fill: none; stroke: #888; stroke-width: 1; opacity: 1;"></line><line transform="translate(0,123)" x2="-5" y2="0" style="fill: none; stroke: #888; stroke-width: 1; opacity: 1;"></line><line transform="translate(0,92)" x2="-5" y2="0" style="fill: none; stroke: #888; stroke-width: 1; opacity: 1;"></line><line transform="translate(0,62)" x2="-5" y2="0" style="fill: none; stroke: #888; stroke-width: 1; opacity: 1;"></line><line transform="translate(0,31)" x2="-5" y2="0" style="fill: none; stroke: #888; stroke-width: 1; opacity: 1;"></line><line transform="translate(0,0)" x2="-5" y2="0" style="fill: none; stroke: #888; stroke-width: 1; opacity: 1;"></line></g><g class="mark-text role-axis-label" style="pointer-events: none;"><text text-anchor="end" transform="translate(-7,187.6251053074979)" style="font-family: sans-serif; font-size: 10px; fill: #000; opacity: 1;">1970</text><text text-anchor="end" transform="translate(-7,156.87531592249368)" style="font-family: sans-serif; font-size: 10px; fill: #000; opacity: 1;">1972</text><text text-anchor="end" transform="translate(-7,126.08340353833192)" style="font-family: sans-serif; font-size: 10px; fill: #000; opacity: 1;">1974</text><text text-anchor="end" transform="translate(-7,95.33361415332773)" style="font-family: sans-serif; font-size: 10px; fill: #000; opacity: 1;">1976</text><text text-anchor="end" transform="translate(-7,64.54170176916597)" style="font-family: sans-serif; font-size: 10px; fill: #000; opacity: 1;">1978</text><text text-anchor="end" transform="translate(-7,33.79191238416175)" style="font-family: sans-serif; font-size: 10px; fill: #000; opacity: 1;">1980</text><text text-anchor="end" transform="translate(-7,3)" style="font-family: sans-serif; font-size: 10px; fill: #000; opacity: 1;">1982</text></g><g class="mark-rule role-axis-domain" style="pointer-events: none;"><line transform="translate(0,200)" x2="0" y2="-200" style="fill: none; stroke: #888; stroke-width: 1; opacity: 1;"></line></g><g class="mark-text role-axis-title" style="pointer-events: none;"><text text-anchor="middle" transform="translate(-35,100) rotate(-90) translate(0,-2)" style="font-family: sans-serif; font-size: 11px; font-weight: bold; fill: #000; opacity: 1;">Year (year)</text></g></g></g></g><g class="mark-area role-mark marks"><path d="M150.5575,192.31255265374895C128.935,187.18758775624823,107.31250000000001,182.06262285874755,107.31250000000001,176.93765796124683C107.31250000000001,171.81269306374614,109.31500000000001,166.68772816624542,113.32,161.56276326874473C117.33048630136985,156.43077787138444,170.95125,151.29879247402417,170.95125,146.16680707666387C170.95125,141.03482167930358,97.13000000000001,135.90283628194328,97.13000000000001,130.77085088458298C97.13000000000001,125.64588598708228,113.510625,120.52092108958158,119.13,115.39595619208087C124.74937499999999,110.27099129458017,130.84625,105.14602639707947,130.84625,100.02106149957876C130.84625,94.88907610221847,104.9075,89.75709070485819,104.9075,84.62510530749789C104.9075,79.4931199101376,128.78125,74.36113451277731,128.78125,69.22914911541702C128.78125,64.10418421791631,117.49833333333332,58.979219320415616,110.75625,53.85425442291492C104.01416666666665,48.72928952541421,88.32875,43.604324627913506,88.32875,38.479359730412796C88.32875,28.215388935692225,139.18,17.951418140971647,190.03125,7.687447346251076L0,7.687447346251076C0,17.951418140971647,0,28.215388935692225,0,38.479359730412796C0,43.604324627913506,0,48.72928952541421,0,53.85425442291492C0,58.979219320415616,0,64.10418421791631,0,69.22914911541702C0,74.36113451277731,0,79.4931199101376,0,84.62510530749789C0,89.75709070485819,0,94.88907610221847,0,100.02106149957876C0,105.14602639707947,0,110.27099129458017,0,115.39595619208087C0,120.52092108958158,0,125.64588598708228,0,130.77085088458298C0,135.90283628194328,0,141.03482167930358,0,146.16680707666387C0,151.29879247402417,0,156.43077787138444,0,161.56276326874473C0,166.68772816624542,0,171.81269306374614,0,176.93765796124683C0,182.06262285874755,0,187.18758775624823,0,192.31255265374895Z" style="fill: #4c78a8;"></path></g></g></g></g></g></svg>