<svg class="marks" width="373" height="242" viewBox="0 0 373 242" version="1.1" xmlns="http://www.w3.org/2000/svg" xmlns:xlink="http://www.w3.org/1999/xlink"><g transform="translate(60,5)"><g class="mark-group role-frame root"><g transform="translate(0,0)"><path class="background" d="M0.5,0.5h300v200h-300Z" style="fill: none; stroke: #ddd;"></path><g><g class="mark-group role-axis"><g transform="translate(0.5,200.5)"><path class="background" d="M0,0h0v0h0Z" style="pointer-events: none; fill: none;"></path><g><g class="mark-rule role-axis-grid" style="pointer-events: none;"><line transform="translate(0,-200)" x2="0" y2="200" style="fill: none; stroke: #ddd; stroke-width: 1; opacity: 1;"></line><line transform="translate(30,-200)" x2="0" y2="200" style="fill: none; stroke: #ddd; stroke-width: 1; opacity: 1;"></line><line transform="translate(59,-200)" x2="0" y2="200" style="fill: none; stroke: #ddd; stroke-width: 1; opacity: 1;"></line><line transform="translate(89,-200)" x2="0" y2="200" style="fill: none; stroke: #ddd; stroke-width: 1; opacity: 1;"></line><line transform="translate(118,-200)" x2="0" y2="200" style="fill: none; stroke: #ddd; stroke-width: 1; opacity: 1;"></line><line transform="translate(148,-200)" x2="0" y2="200" style="fill: none; stroke: #ddd; stroke-width: 1; opacity: 1;"></line><line transform="translate(177,-200)" x2="0" y2="200" style="fill: none; stroke: #ddd; stroke-width: 1; opacity: 1;"></line><line transform="translate(207,-200)" x2="0" y2="200" style="fill: none; stroke: #ddd; stroke-width: 1; opacity: 1;"></line><line transform="translate(236,-200)" x2="0" y2="200" style="fill: none; stroke: #ddd; stroke-width: 1; opacity: 1;"></line><line transform="translate(266,-200)" x2="0" y2="200" style="fill: none; stroke: #ddd; stroke-width: 1; opacity: 1;"></line><line transform="translate(295,-200)" x2="0" y2="200" style="fill: none; stroke: #ddd; stroke-width: 1; opacity: 1;"></line></g></g></g></g><g class="mark-group role-axis"><g transform="translate(0.5,0.5)"><path class="background" d="M0,0h0v0h0Z" style="pointer-events: none; fill: none;"></path><g><g class="mark-rule role-axis-grid" style="pointer-events: none;"><line transform="translate(0,200)" x2="300" y2="0" style="fill: none; stroke: #ddd; stroke-width: 1; opacity: 1;"></line><line transform="translate(0,138)" x2="300" y2="0" style="fill: none; stroke: #ddd; stroke-width: 1; opacity: 1;"></line><line transform="translate(0,75)" x2="300" y2="0" style="fill: none; stroke: #ddd; stroke-width: 1; opacity: 1;"></line><line transform="translate(0,13)" x2="300" y2="0" style="fill: none; stroke: #ddd; stroke-width: 1; opacity: 1;"></line></g></g></g></g><g class="mark-group role-axis"><g transform="translate(0.5,200.5)"><path class="background" d="M0,0h0v0h0Z" style="pointer-events: none; fill: none;"></path><g><g class="mark-rule role-axis-tick" style="pointer-events: none;"><line transform="translate(0,0)" x2="0" y2="5" style="fill: none; stroke: #888; stroke-width: 1; opacity: 1;"></line><line transform="translate(30,0)" x2="0" y2="5" style="fill: none; stroke: #888; stroke-width: 1; opacity: 1;"></line><line transform="translate(59,0)" x2="0" y2="5" style="fill: none; stroke: #888; stroke-width: 1; opacity: 1;"></line><line transform="translate(89,0)" x2="0" y2="5" style="fill: none; stroke: #888; stroke-width: 1; opacity: 1;"></line><line transform="translate(118,0)" x2="0" y2="5" style="fill: none; stroke: #888; stroke-width: 1; opacity: 1;"></line><line transform="translate(148,0)" x2="0" y2="5" style="fill: none; stroke: #888; stroke-width: 1; opacity: 1;"></line><line transform="translate(177,0)" x2="0" y2="5" style="fill: none; stroke: #888; stroke-width: 1; opacity: 1;"></line><line transform="translate(207,0)" x2="0" y2="5" style="fill: none; stroke: #888; stroke-width: 1; opacity: 1;"></line><line transform="translate(236,0)" x2="0" y2="5" style="fill: none; stroke: #888; stroke-width: 1; opacity: 1;"></line><line transform="translate(266,0)" x2="0" y2="5" style="fill: none; stroke: #888; stroke-width: 1; opacity: 1;"></line><line transform="translate(295,0)" x2="0" y2="5" style="fill: none; stroke: #888; stroke-width: 1; opacity: 1;"></line></g><g class="mark-text role-axis-label" style="pointer-events: none;"><text text-anchor="start" transform="translate(0,15)" style="font-family: sans-serif; font-size: 10px; fill: #000; opacity: 1;">2000</text><text text-anchor="middle" transform="translate(29.579741379310345,15)" style="font-family: sans-serif; font-size: 10px; fill: #000; opacity: 0;">2001</text><text text-anchor="middle" transform="translate(59.07866379310345,15)" style="font-family: sans-serif; font-size: 10px; fill: #000; opacity: 1;">2002</text><text text-anchor="middle" transform="translate(88.57758620689656,15)" style="font-family: sans-serif; font-size: 10px; fill: #000; opacity: 0;">2003</text><text text-anchor="middle" transform="translate(118.07650862068965,15)" style="font-family: sans-serif; font-size: 10px; fill: #000; opacity: 1;">2004</text><text text-anchor="middle" transform="translate(147.65625,15)" style="font-family: sans-serif; font-size: 10px; fill: #000; opacity: 0;">2005</text><text text-anchor="middle" transform="translate(177.1551724137931,15)" style="font-family: sans-serif; font-size: 10px; fill: #000; opacity: 1;">2006</text><text text-anchor="middle" transform="translate(206.6540948275862,15)" style="font-family: sans-serif; font-size: 10px; fill: #000; opacity: 0;">2007</text><text text-anchor="middle" transform="translate(236.1530172413793,15)" style="font-family: sans-serif; font-size: 10px; fill: #000; opacity: 1;">2008</text><text text-anchor="middle" transform="translate(265.73275862068965,15)" style="font-family: sans-serif; font-size: 10px; fill: #000; opacity: 0;">2009</text><text text-anchor="middle" transform="translate(295.2316810344828,15)" style="font-family: sans-serif; font-size: 10px; fill: #000; opacity: 1;">2010</text></g><g class="mark-rule role-axis-domain" style="pointer-events: none;"><line transform="translate(0,0)" x2="300" y2="0" style="fill: none; stroke: #888; stroke-width: 1; opacity: 1;"></line></g><g class="mark-text role-axis-title" style="pointer-events: none;"><text text-anchor="middle" transform="translate(150,30)" style="font-family: sans-serif; font-size: 11px; font-weight: bold; fill: #000; opacity: 1;">date (year-month)</text></g></g></g></g><g class="mark-group role-axis"><g transform="translate(0.5,0.5)"><path class="background" d="M0,0h0v0h0Z" style="pointer-events: none; fill: none;"></path><g><g class="mark-rule role-axis-tick" style="pointer-events: none;"><line transform="translate(0,200)" x2="-5" y2="0" style="fill: none; stroke: #888; stroke-width: 1; opacity: 1;"></line><line transform="translate(0,138)" x2="-5" y2="0" style="fill: none; stroke: #888; stroke-width: 1; opacity: 1;"></line><line transform="translate(0,75)" x2="-5" y2="0" style="fill: none; stroke: #888; stroke-width: 1; opacity: 1;"></line><line transform="translate(0,13)" x2="-5" y2="0" style="fill: none; stroke: #888; stroke-width: 1; opacity: 1;"></line></g><g class="mark-text role-axis-label" style="pointer-events: none;"><text text-anchor="end" transform="translate(-7,203)" style="font-family: sans-serif; font-size: 10px; fill: #000; opacity: 1;">0</text><text text-anchor="end" transform="translate(-7,140.5)" style="font-family: sans-serif; font-size: 10px; fill: #000; opacity: 1;">5,000</text><text text-anchor="end" transform="translate(-7,78)" style="font-family: sans-serif; font-size: 10px; fill: #000; opacity: 1;">10,000</text><text text-anchor="end" transform="translate(-7,15.5)" style="font-family: sans-serif; font-size: 10px; fill: #000; opacity: 1;">15,000</text></g><g class="mark-rule role-axis-domain" style="pointer-events: none;"><line transform="translate(0,200)" x2="0" y2="-200" style="fill: none; stroke: #888; stroke-width: 1; opacity: 1;"></line></g><g class="mark-text role-axis-title" style="pointer-events: none;"><text text-anchor="middle" transform="translate(-44,100) rotate(-90) translate(0,-2)" style="font-family: sans-serif; font-size: 11px; font-weight: bold; fill: #000; opacity: 1;">count</text></g></g></g></g><g class="mark-area role-mark marks"><path d="M1.2526939655172413,125.325L3.6772629310344827,126L6.101831896551724,128.975L8.56512661637931,139.4375L11.028421336206897,137.4L13.493399784482758,133.55L15.958378232758621,132.39999999999998L18.463766163793103,133.3L20.928744612068968,137.8125L23.395406788793103,140.175L25.862068965517242,138.075L28.327047413793103,138.8875L30.832435344827587,121.7125L33.216594827586206,122.6375L35.600754310344826,122.89999999999999L38.06404903017241,130.10000000000002L40.52734375,131.95L42.99232219827586,123.58749999999999L45.45730064655172,122.2625L47.962688577586206,118.75L50.427667025862064,120.875L52.894329202586206,115.75L55.36099137931034,110.5125L57.825969827586206,107.75L60.33135775862069,92.10000000000001L62.71551724137931,94.96249999999999L65.09967672413792,96.30000000000001L67.56297144396552,102.7625L70.0262661637931,106.5125L72.49124461206897,100.7625L74.95622306034483,101.02499999999999L77.4616109913793,104.83749999999999L79.92658943965516,108.85000000000001L82.3932516163793,108.28750000000001L84.85991379310344,104.71249999999999L87.32489224137932,102.55L89.83028017241381,89.0875L92.21443965517241,90.2625L94.59859913793103,94.30000000000001L97.06189385775862,100.94999999999999L99.5251885775862,101.47500000000001L101.99016702586206,91.625L104.45514547413794,95.35L106.96053340517241,98.475L109.42551185344828,102.51249999999999L111.89217403017241,105.0625L114.35883620689656,103.60000000000001L116.82381465517241,107.39999999999999L119.3292025862069,93.075L121.75377155172414,97.2875L124.17834051724138,96.55L126.64163523706897,109.3875L129.10492995689654,111.4L131.5699084051724,104.27499999999999L134.03488685344828,105.875L136.54027478448276,110.28750000000001L139.00525323275863,113.85L141.47191540948276,114.275L143.9385775862069,112.38749999999999L146.40355603448276,111.8625L148.90894396551724,101.2125L151.29310344827584,100.9375L153.67726293103448,107.9375L156.14055765086206,116.825L158.60385237068968,117.7375L161.06883081896552,113.575L163.5338092672414,113.03750000000001L166.03919719827587,116.9L168.50417564655172,116.475L170.97083782327587,120.35L173.4375,116.975L175.90247844827584,119.27499999999999L178.40786637931035,111.575L180.79202586206898,111.2125L183.17618534482762,116.14999999999999L185.63948006465517,121.45L188.10277478448276,123.28750000000001L190.5677532327586,120.0875L193.0327316810345,116.03750000000001L195.53811961206895,120.19999999999999L198.00309806034483,124.58749999999999L200.46976023706895,128.35L202.9364224137931,124.6625L205.40140086206898,124.7375L207.90678879310346,111.08749999999999L210.29094827586206,113.6875L212.6734240301724,120.175L215.13671875,125.1L217.60169719827587,125.53750000000001L220.06667564655172,120.4875L222.5316540948276,115.9125L225.03704202586206,119.475L227.50202047413794,121.2375L229.96699892241378,123.625L232.43366109913794,121.3125L234.90032327586206,114.8L237.40571120689654,104.5L239.8302801724138,107.375L242.25316540948276,107.19999999999999L244.71646012931035,115.71249999999999L247.18143857758622,108.96249999999999L249.64641702586206,102.53750000000001L252.11139547413794,96.3875L254.6167834051724,92.9L257.08176185344826,95.01250000000002L259.5467403017241,91.4375L262.01340247844826,83.47500000000001L264.4800646551724,70.9L266.98545258620686,45.70000000000002L269.3696120689655,39.125L271.7520878232759,35.625L274.21538254310343,44.23749999999998L276.6803609913793,37.27499999999998L279.1453394396552,29.125L281.61031788793105,27.13749999999999L284.1157058189655,29.862499999999983L286.5806842672414,32.375L289.0456627155172,31.349999999999994L291.5123248922414,34.88750000000002L293.9789870689655,28.8125L296.484375,10.9375L298.8685344827586,12.650000000000006L298.8685344827586,200L296.484375,200L293.9789870689655,200L291.5123248922414,200L289.0456627155172,200L286.5806842672414,200L284.1157058189655,200L281.61031788793105,200L279.1453394396552,200L276.6803609913793,200L274.21538254310343,200L271.7520878232759,200L269.3696120689655,200L266.98545258620686,200L264.4800646551724,200L262.01340247844826,200L259.5467403017241,200L257.08176185344826,200L254.6167834051724,200L252.11139547413794,200L249.64641702586206,200L247.18143857758622,200L244.71646012931035,200L242.25316540948276,200L239.8302801724138,200L237.40571120689654,200L234.90032327586206,200L232.43366109913794,200L229.96699892241378,200L227.50202047413794,200L225.03704202586206,200L222.5316540948276,200L220.06667564655172,200L217.60169719827587,200L215.13671875,200L212.6734240301724,200L210.29094827586206,200L207.90678879310346,200L205.40140086206898,200L202.9364224137931,200L200.46976023706895,200L198.00309806034483,200L195.53811961206895,200L193.0327316810345,200L190.5677532327586,200L188.10277478448276,200L185.63948006465517,200L183.17618534482762,200L180.79202586206898,200L178.40786637931035,200L175.90247844827584,200L173.4375,200L170.97083782327587,200L168.50417564655172,200L166.03919719827587,200L163.5338092672414,200L161.06883081896552,200L158.60385237068968,200L156.14055765086206,200L153.67726293103448,200L151.29310344827584,200L148.90894396551724,200L146.40355603448276,200L143.9385775862069,200L141.47191540948276,200L139.00525323275863,200L136.54027478448276,200L134.03488685344828,200L131.5699084051724,200L129.10492995689654,200L126.64163523706897,200L124.17834051724138,200L121.75377155172414,200L119.3292025862069,200L116.82381465517241,200L114.35883620689656,200L111.89217403017241,200L109.42551185344828,200L106.96053340517241,200L104.45514547413794,200L101.99016702586206,200L99.5251885775862,200L97.06189385775862,200L94.59859913793103,200L92.21443965517241,200L89.83028017241381,200L87.32489224137932,200L84.85991379310344,200L82.3932516163793,200L79.92658943965516,200L77.4616109913793,200L74.95622306034483,200L72.49124461206897,200L70.0262661637931,200L67.56297144396552,200L65.09967672413792,200L62.71551724137931,200L60.33135775862069,200L57.825969827586206,200L55.36099137931034,200L52.894329202586206,200L50.427667025862064,200L47.962688577586206,200L45.45730064655172,200L42.99232219827586,200L40.52734375,200L38.06404903017241,200L35.600754310344826,200L33.216594827586206,200L30.832435344827587,200L28.327047413793103,200L25.862068965517242,200L23.395406788793103,200L20.928744612068968,200L18.463766163793103,200L15.958378232758621,200L13.493399784482758,200L11.028421336206897,200L8.56512661637931,200L6.101831896551724,200L3.6772629310344827,200L1.2526939655172413,200Z" style="fill: #4c78a8;"></path></g></g></g></g></g></svg>