<svg class="marks" width="265" height="242" viewBox="0 0 265 242" version="1.1" xmlns="http://www.w3.org/2000/svg" xmlns:xlink="http://www.w3.org/1999/xlink"><defs><clipPath id="clip1"><rect x="0" y="0" width="200" height="200"></rect></clipPath><clipPath id="clip2"><rect x="0" y="0" width="200" height="200"></rect></clipPath></defs><g transform="translate(60,5)"><g class="mark-group role-frame root"><g transform="translate(0,0)"><path class="background" d="M0.5,0.5h200v200h-200Z" style="fill: none; stroke: #ddd;"></path><g><g class="mark-group role-axis"><g transform="translate(0.5,200.5)"><path class="background" d="M0,0h0v0h0Z" style="pointer-events: none; fill: none;"></path><g><g class="mark-rule role-axis-grid" style="pointer-events: none;"><line transform="translate(0,-200)" x2="0" y2="200" style="fill: none; stroke: #ddd; stroke-width: 1; opacity: 1;"></line><line transform="translate(39,-200)" x2="0" y2="200" style="fill: none; stroke: #ddd; stroke-width: 1; opacity: 1;"></line><line transform="translate(79,-200)" x2="0" y2="200" style="fill: none; stroke: #ddd; stroke-width: 1; opacity: 1;"></line><line transform="translate(118,-200)" x2="0" y2="200" style="fill: none; stroke: #ddd; stroke-width: 1; opacity: 1;"></line><line transform="translate(157,-200)" x2="0" y2="200" style="fill: none; stroke: #ddd; stroke-width: 1; opacity: 1;"></line><line transform="translate(197,-200)" x2="0" y2="200" style="fill: none; stroke: #ddd; stroke-width: 1; opacity: 1;"></line></g></g></g></g><g class="mark-group role-axis"><g transform="translate(0.5,0.5)"><path class="background" d="M0,0h0v0h0Z" style="pointer-events: none; fill: none;"></path><g><g class="mark-rule role-axis-grid" style="pointer-events: none;"><line transform="translate(0,200)" x2="200" y2="0" style="fill: none; stroke: #ddd; stroke-width: 1; opacity: 1;"></line><line transform="translate(0,138)" x2="200" y2="0" style="fill: none; stroke: #ddd; stroke-width: 1; opacity: 1;"></line><line transform="translate(0,75)" x2="200" y2="0" style="fill: none; stroke: #ddd; stroke-width: 1; opacity: 1;"></line><line transform="translate(0,13)" x2="200" y2="0" style="fill: none; stroke: #ddd; stroke-width: 1; opacity: 1;"></line></g></g></g></g><g class="mark-group role-axis"><g transform="translate(0.5,200.5)"><path class="background" d="M0,0h0v0h0Z" style="pointer-events: none; fill: none;"></path><g><g class="mark-rule role-axis-tick" style="pointer-events: none;"><line transform="translate(0,0)" x2="0" y2="5" style="fill: none; stroke: #888; stroke-width: 1; opacity: 1;"></line><line transform="translate(39,0)" x2="0" y2="5" style="fill: none; stroke: #888; stroke-width: 1; opacity: 1;"></line><line transform="translate(79,0)" x2="0" y2="5" style="fill: none; stroke: #888; stroke-width: 1; opacity: 1;"></line><line transform="translate(118,0)" x2="0" y2="5" style="fill: none; stroke: #888; stroke-width: 1; opacity: 1;"></line><line transform="translate(157,0)" x2="0" y2="5" style="fill: none; stroke: #888; stroke-width: 1; opacity: 1;"></line><line transform="translate(197,0)" x2="0" y2="5" style="fill: none; stroke: #888; stroke-width: 1; opacity: 1;"></line></g><g class="mark-text role-axis-label" style="pointer-events: none;"><text text-anchor="start" transform="translate(0,15)" style="font-family: sans-serif; font-size: 10px; fill: #000; opacity: 1;">Jan 2000</text><text text-anchor="middle" transform="translate(39.38577586206897,15)" style="font-family: sans-serif; font-size: 10px; fill: #000; opacity: 0;">Jan 2002</text><text text-anchor="middle" transform="translate(78.71767241379311,15)" style="font-family: sans-serif; font-size: 10px; fill: #000; opacity: 1;">Jan 2004</text><text text-anchor="middle" transform="translate(118.10344827586208,15)" style="font-family: sans-serif; font-size: 10px; fill: #000; opacity: 0;">Jan 2006</text><text text-anchor="middle" transform="translate(157.43534482758622,15)" style="font-family: sans-serif; font-size: 10px; fill: #000; opacity: 1;">Jan 2008</text><text text-anchor="middle" transform="translate(196.82112068965517,15)" style="font-family: sans-serif; font-size: 10px; fill: #000; opacity: 0;">Jan 2010</text></g><g class="mark-rule role-axis-domain" style="pointer-events: none;"><line transform="translate(0,0)" x2="200" y2="0" style="fill: none; stroke: #888; stroke-width: 1; opacity: 1;"></line></g><g class="mark-text role-axis-title" style="pointer-events: none;"><text text-anchor="middle" transform="translate(100,30)" style="font-family: sans-serif; font-size: 11px; font-weight: bold; fill: #000; opacity: 1;">date (year-month)</text></g></g></g></g><g class="mark-group role-axis"><g transform="translate(0.5,0.5)"><path class="background" d="M0,0h0v0h0Z" style="pointer-events: none; fill: none;"></path><g><g class="mark-rule role-axis-tick" style="pointer-events: none;"><line transform="translate(0,200)" x2="-5" y2="0" style="fill: none; stroke: #888; stroke-width: 1; opacity: 1;"></line><line transform="translate(0,138)" x2="-5" y2="0" style="fill: none; stroke: #888; stroke-width: 1; opacity: 1;"></line><line transform="translate(0,75)" x2="-5" y2="0" style="fill: none; stroke: #888; stroke-width: 1; opacity: 1;"></line><line transform="translate(0,13)" x2="-5" y2="0" style="fill: none; stroke: #888; stroke-width: 1; opacity: 1;"></line></g><g class="mark-text role-axis-label" style="pointer-events: none;"><text text-anchor="end" transform="translate(-7,203)" style="font-family: sans-serif; font-size: 10px; fill: #000; opacity: 1;">0</text><text text-anchor="end" transform="translate(-7,140.5)" style="font-family: sans-serif; font-size: 10px; fill: #000; opacity: 1;">5,000</text><text text-anchor="end" transform="translate(-7,78)" style="font-family: sans-serif; font-size: 10px; fill: #000; opacity: 1;">10,000</text><text text-anchor="end" transform="translate(-7,15.5)" style="font-family: sans-serif; font-size: 10px; fill: #000; opacity: 1;">15,000</text></g><g class="mark-rule role-axis-domain" style="pointer-events: none;"><line transform="translate(0,200)" x2="0" y2="-200" style="fill: none; stroke: #888; stroke-width: 1; opacity: 1;"></line></g><g class="mark-text role-axis-title" style="pointer-events: none;"><text text-anchor="middle" transform="translate(-44,100) rotate(-90) translate(0,-2)" style="font-family: sans-serif; font-size: 11px; font-weight: bold; fill: #000; opacity: 1;">Sum of count</text></g></g></g></g><g class="mark-rect role-mark brush_brush_bg" clip-path="url(#clip1)"><path d="M0,0h0v0h0Z" style="fill: #333; fill-opacity: 0.125;"></path></g><g class="mark-area role-mark layer_0_marks"><path d="M0.8351293103448275,125.325L2.4515086206896552,126L4.067887931034483,128.975L5.71008441091954,139.4375L7.3522808908045985,137.4L8.995599856321839,133.55L10.63891882183908,132.39999999999998L12.309177442528735,133.3L13.952496408045977,137.8125L15.596937859195403,140.175L17.24137931034483,138.075L18.884698275862068,138.8875L20.554956896551722,121.7125L22.14439655172414,122.6375L23.73383620689655,122.89999999999999L25.376032686781606,130.10000000000002L27.018229166666668,131.95L28.661548132183906,123.58749999999999L30.30486709770115,122.2625L31.975125718390807,118.75L33.618444683908045,120.875L35.26288613505747,115.75L36.9073275862069,110.5125L38.550646551724135,107.75L40.220905172413794,92.10000000000001L41.810344827586206,94.96249999999999L43.39978448275862,96.30000000000001L45.04198096264368,102.7625L46.684177442528735,106.5125L48.32749640804598,100.7625L49.97081537356322,101.02499999999999L51.64107399425287,104.83749999999999L53.28439295977011,108.85000000000001L54.928834410919535,108.28750000000001L56.57327586206896,104.71249999999999L58.216594827586206,102.55L59.886853448275865,89.0875L61.47629310344828,90.2625L63.06573275862068,94.30000000000001L64.70792923850574,100.94999999999999L66.35012571839081,101.47500000000001L67.99344468390804,91.625L69.63676364942529,95.35L71.30702227011494,98.475L72.9503412356322,102.51249999999999L74.59478268678161,105.0625L76.23922413793103,103.60000000000001L77.88254310344827,107.39999999999999L79.55280172413794,93.075L81.16918103448276,97.2875L82.78556034482759,96.55L84.42775682471265,109.3875L86.0699533045977,111.4L87.71327227011494,104.27499999999999L89.3565912356322,105.875L91.02684985632183,110.28750000000001L92.67016882183908,113.85L94.3146102729885,114.275L95.95905172413794,112.38749999999999L97.60237068965517,111.8625L99.27262931034483,101.2125L100.86206896551724,100.9375L102.45150862068965,107.9375L104.09370510057472,116.825L105.73590158045978,117.7375L107.37922054597702,113.575L109.02253951149426,113.03750000000001L110.69279813218391,116.9L112.33611709770115,116.475L113.98055854885058,120.35L115.625,116.975L117.26831896551724,119.27499999999999L118.93857758620689,111.575L120.52801724137932,111.2125L122.11745689655173,116.14999999999999L123.75965337643677,121.45L125.40184985632183,123.28750000000001L127.04516882183907,120.0875L128.68848778735634,116.03750000000001L130.35874640804596,120.19999999999999L132.00206537356323,124.58749999999999L133.64650682471265,128.35L135.29094827586206,124.6625L136.9342672413793,124.7375L138.60452586206898,111.08749999999999L140.19396551724137,113.6875L141.78228268678163,120.175L143.42447916666669,125.1L145.06779813218392,125.53750000000001L146.71111709770116,120.4875L148.35443606321837,115.9125L150.02469468390805,119.475L151.6680136494253,121.2375L153.31133261494253,123.625L154.95577406609195,121.3125L156.60021551724137,114.8L158.27047413793102,104.5L159.88685344827587,107.375L161.50211027298852,107.19999999999999L163.14430675287358,115.71249999999999L164.7876257183908,108.96249999999999L166.43094468390805,102.53750000000001L168.0742636494253,96.3875L169.74452227011494,92.9L171.38784123563218,95.01250000000002L173.03116020114942,91.4375L174.67560165229884,83.47500000000001L176.32004310344826,70.9L177.99030172413794,45.70000000000002L179.57974137931035,39.125L181.16805854885058,35.625L182.8102550287356,44.23749999999998L184.45357399425288,37.27499999999998L186.09689295977012,29.125L187.74021192528735,27.13749999999999L189.410470545977,29.862499999999983L191.05378951149424,32.375L192.69710847701148,31.349999999999994L194.34154992816093,34.88750000000002L195.98599137931035,28.8125L197.65625,10.9375L199.2456896551724,12.650000000000006L199.2456896551724,200L197.65625,200L195.98599137931035,200L194.34154992816093,200L192.69710847701148,200L191.05378951149424,200L189.410470545977,200L187.74021192528735,200L186.09689295977012,200L184.45357399425288,200L182.8102550287356,200L181.16805854885058,200L179.57974137931035,200L177.99030172413794,200L176.32004310344826,200L174.67560165229884,200L173.03116020114942,200L171.38784123563218,200L169.74452227011494,200L168.0742636494253,200L166.43094468390805,200L164.7876257183908,200L163.14430675287358,200L161.50211027298852,200L159.88685344827587,200L158.27047413793102,200L156.60021551724137,200L154.95577406609195,200L153.31133261494253,200L151.6680136494253,200L150.02469468390805,200L148.35443606321837,200L146.71111709770116,200L145.06779813218392,200L143.42447916666669,200L141.78228268678163,200L140.19396551724137,200L138.60452586206898,200L136.9342672413793,200L135.29094827586206,200L133.64650682471265,200L132.00206537356323,200L130.35874640804596,200L128.68848778735634,200L127.04516882183907,200L125.40184985632183,200L123.75965337643677,200L122.11745689655173,200L120.52801724137932,200L118.93857758620689,200L117.26831896551724,200L115.625,200L113.98055854885058,200L112.33611709770115,200L110.69279813218391,200L109.02253951149426,200L107.37922054597702,200L105.73590158045978,200L104.09370510057472,200L102.45150862068965,200L100.86206896551724,200L99.27262931034483,200L97.60237068965517,200L95.95905172413794,200L94.3146102729885,200L92.67016882183908,200L91.02684985632183,200L89.3565912356322,200L87.71327227011494,200L86.0699533045977,200L84.42775682471265,200L82.78556034482759,200L81.16918103448276,200L79.55280172413794,200L77.88254310344827,200L76.23922413793103,200L74.59478268678161,200L72.9503412356322,200L71.30702227011494,200L69.63676364942529,200L67.99344468390804,200L66.35012571839081,200L64.70792923850574,200L63.06573275862068,200L61.47629310344828,200L59.886853448275865,200L58.216594827586206,200L56.57327586206896,200L54.928834410919535,200L53.28439295977011,200L51.64107399425287,200L49.97081537356322,200L48.32749640804598,200L46.684177442528735,200L45.04198096264368,200L43.39978448275862,200L41.810344827586206,200L40.220905172413794,200L38.550646551724135,200L36.9073275862069,200L35.26288613505747,200L33.618444683908045,200L31.975125718390807,200L30.30486709770115,200L28.661548132183906,200L27.018229166666668,200L25.376032686781606,200L23.73383620689655,200L22.14439655172414,200L20.554956896551722,200L18.884698275862068,200L17.24137931034483,200L15.596937859195403,200L13.952496408045977,200L12.309177442528735,200L10.63891882183908,200L8.995599856321839,200L7.3522808908045985,200L5.71008441091954,200L4.067887931034483,200L2.4515086206896552,200L0.8351293103448275,200Z" style="fill: #4c78a8;"></path></g><g class="mark-area role-mark layer_1_marks"><path d="M0.8351293103448275,125.325L2.4515086206896552,126L4.067887931034483,128.975L5.71008441091954,139.4375L7.3522808908045985,137.4L8.995599856321839,133.55L10.63891882183908,132.39999999999998L12.309177442528735,133.3L13.952496408045977,137.8125L15.596937859195403,140.175L17.24137931034483,138.075L18.884698275862068,138.8875L20.554956896551722,121.7125L22.14439655172414,122.6375L23.73383620689655,122.89999999999999L25.376032686781606,130.10000000000002L27.018229166666668,131.95L28.661548132183906,123.58749999999999L30.30486709770115,122.2625L31.975125718390807,118.75L33.618444683908045,120.875L35.26288613505747,115.75L36.9073275862069,110.5125L38.550646551724135,107.75L40.220905172413794,92.10000000000001L41.810344827586206,94.96249999999999L43.39978448275862,96.30000000000001L45.04198096264368,102.7625L46.684177442528735,106.5125L48.32749640804598,100.7625L49.97081537356322,101.02499999999999L51.64107399425287,104.83749999999999L53.28439295977011,108.85000000000001L54.928834410919535,108.28750000000001L56.57327586206896,104.71249999999999L58.216594827586206,102.55L59.886853448275865,89.0875L61.47629310344828,90.2625L63.06573275862068,94.30000000000001L64.70792923850574,100.94999999999999L66.35012571839081,101.47500000000001L67.99344468390804,91.625L69.63676364942529,95.35L71.30702227011494,98.475L72.9503412356322,102.51249999999999L74.59478268678161,105.0625L76.23922413793103,103.60000000000001L77.88254310344827,107.39999999999999L79.55280172413794,93.075L81.16918103448276,97.2875L82.78556034482759,96.55L84.42775682471265,109.3875L86.0699533045977,111.4L87.71327227011494,104.27499999999999L89.3565912356322,105.875L91.02684985632183,110.28750000000001L92.67016882183908,113.85L94.3146102729885,114.275L95.95905172413794,112.38749999999999L97.60237068965517,111.8625L99.27262931034483,101.2125L100.86206896551724,100.9375L102.45150862068965,107.9375L104.09370510057472,116.825L105.73590158045978,117.7375L107.37922054597702,113.575L109.02253951149426,113.03750000000001L110.69279813218391,116.9L112.33611709770115,116.475L113.98055854885058,120.35L115.625,116.975L117.26831896551724,119.27499999999999L118.93857758620689,111.575L120.52801724137932,111.2125L122.11745689655173,116.14999999999999L123.75965337643677,121.45L125.40184985632183,123.28750000000001L127.04516882183907,120.0875L128.68848778735634,116.03750000000001L130.35874640804596,120.19999999999999L132.00206537356323,124.58749999999999L133.64650682471265,128.35L135.29094827586206,124.6625L136.9342672413793,124.7375L138.60452586206898,111.08749999999999L140.19396551724137,113.6875L141.78228268678163,120.175L143.42447916666669,125.1L145.06779813218392,125.53750000000001L146.71111709770116,120.4875L148.35443606321837,115.9125L150.02469468390805,119.475L151.6680136494253,121.2375L153.31133261494253,123.625L154.95577406609195,121.3125L156.60021551724137,114.8L158.27047413793102,104.5L159.88685344827587,107.375L161.50211027298852,107.19999999999999L163.14430675287358,115.71249999999999L164.7876257183908,108.96249999999999L166.43094468390805,102.53750000000001L168.0742636494253,96.3875L169.74452227011494,92.9L171.38784123563218,95.01250000000002L173.03116020114942,91.4375L174.67560165229884,83.47500000000001L176.32004310344826,70.9L177.99030172413794,45.70000000000002L179.57974137931035,39.125L181.16805854885058,35.625L182.8102550287356,44.23749999999998L184.45357399425288,37.27499999999998L186.09689295977012,29.125L187.74021192528735,27.13749999999999L189.410470545977,29.862499999999983L191.05378951149424,32.375L192.69710847701148,31.349999999999994L194.34154992816093,34.88750000000002L195.98599137931035,28.8125L197.65625,10.9375L199.2456896551724,12.650000000000006L199.2456896551724,200L197.65625,200L195.98599137931035,200L194.34154992816093,200L192.69710847701148,200L191.05378951149424,200L189.410470545977,200L187.74021192528735,200L186.09689295977012,200L184.45357399425288,200L182.8102550287356,200L181.16805854885058,200L179.57974137931035,200L177.99030172413794,200L176.32004310344826,200L174.67560165229884,200L173.03116020114942,200L171.38784123563218,200L169.74452227011494,200L168.0742636494253,200L166.43094468390805,200L164.7876257183908,200L163.14430675287358,200L161.50211027298852,200L159.88685344827587,200L158.27047413793102,200L156.60021551724137,200L154.95577406609195,200L153.31133261494253,200L151.6680136494253,200L150.02469468390805,200L148.35443606321837,200L146.71111709770116,200L145.06779813218392,200L143.42447916666669,200L141.78228268678163,200L140.19396551724137,200L138.60452586206898,200L136.9342672413793,200L135.29094827586206,200L133.64650682471265,200L132.00206537356323,200L130.35874640804596,200L128.68848778735634,200L127.04516882183907,200L125.40184985632183,200L123.75965337643677,200L122.11745689655173,200L120.52801724137932,200L118.93857758620689,200L117.26831896551724,200L115.625,200L113.98055854885058,200L112.33611709770115,200L110.69279813218391,200L109.02253951149426,200L107.37922054597702,200L105.73590158045978,200L104.09370510057472,200L102.45150862068965,200L100.86206896551724,200L99.27262931034483,200L97.60237068965517,200L95.95905172413794,200L94.3146102729885,200L92.67016882183908,200L91.02684985632183,200L89.3565912356322,200L87.71327227011494,200L86.0699533045977,200L84.42775682471265,200L82.78556034482759,200L81.16918103448276,200L79.55280172413794,200L77.88254310344827,200L76.23922413793103,200L74.59478268678161,200L72.9503412356322,200L71.30702227011494,200L69.63676364942529,200L67.99344468390804,200L66.35012571839081,200L64.70792923850574,200L63.06573275862068,200L61.47629310344828,200L59.886853448275865,200L58.216594827586206,200L56.57327586206896,200L54.928834410919535,200L53.28439295977011,200L51.64107399425287,200L49.97081537356322,200L48.32749640804598,200L46.684177442528735,200L45.04198096264368,200L43.39978448275862,200L41.810344827586206,200L40.220905172413794,200L38.550646551724135,200L36.9073275862069,200L35.26288613505747,200L33.618444683908045,200L31.975125718390807,200L30.30486709770115,200L28.661548132183906,200L27.018229166666668,200L25.376032686781606,200L23.73383620689655,200L22.14439655172414,200L20.554956896551722,200L18.884698275862068,200L17.24137931034483,200L15.596937859195403,200L13.952496408045977,200L12.309177442528735,200L10.63891882183908,200L8.995599856321839,200L7.3522808908045985,200L5.71008441091954,200L4.067887931034483,200L2.4515086206896552,200L0.8351293103448275,200Z" style="fill: goldenrod;"></path></g><g class="mark-rect role-mark brush_brush" clip-path="url(#clip2)"><path d="M0,0h0v0h0Z" style="fill: none;"></path></g></g></g></g></g></svg>