<svg class="marks" width="347" height="242" viewBox="0 0 347 242" version="1.1" xmlns="http://www.w3.org/2000/svg" xmlns:xlink="http://www.w3.org/1999/xlink"><g transform="translate(66,5)"><g class="mark-group role-frame root"><g transform="translate(0,0)"><path class="background" d="M0.5,0.5h200v200h-200Z" style="fill: none; stroke: #ddd;"></path><g><g class="mark-group role-axis"><g transform="translate(0.5,200.5)"><path class="background" d="M0,0h0v0h0Z" style="pointer-events: none; fill: none;"></path><g><g class="mark-rule role-axis-grid" style="pointer-events: none;"><line transform="translate(15,-200)" x2="0" y2="200" style="fill: none; stroke: #ddd; stroke-width: 1; opacity: 1;"></line><line transform="translate(46,-200)" x2="0" y2="200" style="fill: none; stroke: #ddd; stroke-width: 1; opacity: 1;"></line><line transform="translate(77,-200)" x2="0" y2="200" style="fill: none; stroke: #ddd; stroke-width: 1; opacity: 1;"></line><line transform="translate(108,-200)" x2="0" y2="200" style="fill: none; stroke: #ddd; stroke-width: 1; opacity: 1;"></line><line transform="translate(138,-200)" x2="0" y2="200" style="fill: none; stroke: #ddd; stroke-width: 1; opacity: 1;"></line><line transform="translate(169,-200)" x2="0" y2="200" style="fill: none; stroke: #ddd; stroke-width: 1; opacity: 1;"></line><line transform="translate(200,-200)" x2="0" y2="200" style="fill: none; stroke: #ddd; stroke-width: 1; opacity: 1;"></line></g></g></g></g><g class="mark-group role-axis"><g transform="translate(0.5,0.5)"><path class="background" d="M0,0h0v0h0Z" style="pointer-events: none; fill: none;"></path><g><g class="mark-rule role-axis-grid" style="pointer-events: none;"><line transform="translate(0,200)" x2="200" y2="0" style="fill: none; stroke: #ddd; stroke-width: 1; opacity: 1;"></line><line transform="translate(0,138)" x2="200" y2="0" style="fill: none; stroke: #ddd; stroke-width: 1; opacity: 1;"></line><line transform="translate(0,75)" x2="200" y2="0" style="fill: none; stroke: #ddd; stroke-width: 1; opacity: 1;"></line><line transform="translate(0,13)" x2="200" y2="0" style="fill: none; stroke: #ddd; stroke-width: 1; opacity: 1;"></line></g></g></g></g><g class="mark-group role-axis"><g transform="translate(0.5,200.5)"><path class="background" d="M0,0h0v0h0Z" style="pointer-events: none; fill: none;"></path><g><g class="mark-rule role-axis-tick" style="pointer-events: none;"><line transform="translate(15,0)" x2="0" y2="5" style="fill: none; stroke: #888; stroke-width: 1; opacity: 1;"></line><line transform="translate(46,0)" x2="0" y2="5" style="fill: none; stroke: #888; stroke-width: 1; opacity: 1;"></line><line transform="translate(77,0)" x2="0" y2="5" style="fill: none; stroke: #888; stroke-width: 1; opacity: 1;"></line><line transform="translate(108,0)" x2="0" y2="5" style="fill: none; stroke: #888; stroke-width: 1; opacity: 1;"></line><line transform="translate(138,0)" x2="0" y2="5" style="fill: none; stroke: #888; stroke-width: 1; opacity: 1;"></line><line transform="translate(169,0)" x2="0" y2="5" style="fill: none; stroke: #888; stroke-width: 1; opacity: 1;"></line><line transform="translate(200,0)" x2="0" y2="5" style="fill: none; stroke: #888; stroke-width: 1; opacity: 1;"></line></g><g class="mark-text role-axis-label" style="pointer-events: none;"><text text-anchor="middle" transform="translate(15.374894692502107,15)" style="font-family: sans-serif; font-size: 10px; fill: #000; opacity: 1;">1970</text><text text-anchor="middle" transform="translate(46.124684077506316,15)" style="font-family: sans-serif; font-size: 10px; fill: #000; opacity: 0;">1972</text><text text-anchor="middle" transform="translate(76.91659646166808,15)" style="font-family: sans-serif; font-size: 10px; fill: #000; opacity: 1;">1974</text><text text-anchor="middle" transform="translate(107.66638584667227,15)" style="font-family: sans-serif; font-size: 10px; fill: #000; opacity: 0;">1976</text><text text-anchor="middle" transform="translate(138.45829823083403,15)" style="font-family: sans-serif; font-size: 10px; fill: #000; opacity: 1;">1978</text><text text-anchor="middle" transform="translate(169.20808761583825,15)" style="font-family: sans-serif; font-size: 10px; fill: #000; opacity: 0;">1980</text><text text-anchor="end" transform="translate(200,15)" style="font-family: sans-serif; font-size: 10px; fill: #000; opacity: 1;">1982</text></g><g class="mark-rule role-axis-domain" style="pointer-events: none;"><line transform="translate(0,0)" x2="200" y2="0" style="fill: none; stroke: #888; stroke-width: 1; opacity: 1;"></line></g><g class="mark-text role-axis-title" style="pointer-events: none;"><text text-anchor="middle" transform="translate(100,30)" style="font-family: sans-serif; font-size: 11px; font-weight: bold; fill: #000; opacity: 1;">Year (year)</text></g></g></g></g><g class="mark-group role-axis"><g transform="translate(0.5,0.5)"><path class="background" d="M0,0h0v0h0Z" style="pointer-events: none; fill: none;"></path><g><g class="mark-rule role-axis-tick" style="pointer-events: none;"><line transform="translate(0,200)" x2="-5" y2="0" style="fill: none; stroke: #888; stroke-width: 1; opacity: 1;"></line><line transform="translate(0,138)" x2="-5" y2="0" style="fill: none; stroke: #888; stroke-width: 1; opacity: 1;"></line><line transform="translate(0,75)" x2="-5" y2="0" style="fill: none; stroke: #888; stroke-width: 1; opacity: 1;"></line><line transform="translate(0,13)" x2="-5" y2="0" style="fill: none; stroke: #888; stroke-width: 1; opacity: 1;"></line></g><g class="mark-text role-axis-label" style="pointer-events: none;"><text text-anchor="end" transform="translate(-7,203)" style="font-family: sans-serif; font-size: 10px; fill: #000; opacity: 1;">0</text><text text-anchor="end" transform="translate(-7,140.5)" style="font-family: sans-serif; font-size: 10px; fill: #000; opacity: 1;">50,000</text><text text-anchor="end" transform="translate(-7,78)" style="font-family: sans-serif; font-size: 10px; fill: #000; opacity: 1;">100,000</text><text text-anchor="end" transform="translate(-7,15.5)" style="font-family: sans-serif; font-size: 10px; fill: #000; opacity: 1;">150,000</text></g><g class="mark-rule role-axis-domain" style="pointer-events: none;"><line transform="translate(0,200)" x2="0" y2="-200" style="fill: none; stroke: #888; stroke-width: 1; opacity: 1;"></line></g><g class="mark-text role-axis-title" style="pointer-events: none;"><text text-anchor="middle" transform="translate(-50,100) rotate(-90) translate(0,-2)" style="font-family: sans-serif; font-size: 11px; font-weight: bold; fill: #000; opacity: 1;">Sum of Weight_in_lbs</text></g></g></g></g><g class="mark-group role-scope pathgroup"><g transform="translate(0,0)"><path class="background" d="M0,0h200v200h-200Z" style="fill: none;"></path><g><g class="mark-area role-mark marks"><path d="M0,86.9175C5.1249648975007025,123.60625000000002,10.249929795001403,160.29500000000002,15.374894692502107,160.29500000000002C20.49985959000281,160.29500000000002,25.62482448750351,142.50062499999999,30.749789385004213,131.28875C35.87475428250492,120.07687499999999,40.99971918000561,93.02375,46.124684077506316,93.02375C51.2636899747262,93.02375,56.40269587194609,172.26,61.54170176916597,172.26C66.66666666666667,172.26,71.79163156416737,171.23458333333332,76.91659646166808,169.18375C82.04156135916878,167.1329166666667,87.16652625666947,154.2725,92.29149115417017,154.2725C97.41645605167088,154.2725,102.54142094917157,155.59,107.66638584667227,158.225C112.80539174389216,160.8672191780822,117.94439764111205,173.275,123.08340353833194,173.275C128.20836843583263,173.275,133.33333333333334,151.71375,138.45829823083403,151.71375C143.58326312833475,151.71375,148.70822802583544,200,153.83319292333616,200C164.09716371805675,200,174.3611345127773,197.671875,184.6251053074979,195.34375L184.6251053074979,200C174.3611345127773,200,164.09716371805675,200,153.83319292333616,200C148.70822802583544,200,143.58326312833475,200,138.45829823083403,200C133.33333333333334,200,128.20836843583263,200,123.08340353833194,200C117.94439764111205,200,112.80539174389216,200,107.66638584667227,200C102.54142094917157,200,97.41645605167088,200,92.29149115417017,200C87.16652625666947,200,82.04156135916878,200,76.91659646166808,200C71.79163156416737,200,66.66666666666667,200,61.54170176916597,200C56.40269587194609,200,51.2636899747262,200,46.124684077506316,200C40.99971918000561,200,35.87475428250492,200,30.749789385004213,200C25.62482448750351,200,20.49985959000281,200,15.374894692502107,200C10.249929795001403,200,5.1249648975007025,200,0,200Z" style="fill: rgb(27, 105, 173);"></path></g></g></g><g transform="translate(0,0)"><path class="background" d="M0,0h200v200h-200Z" style="fill: none;"></path><g><g class="mark-area role-mark marks"><path d="M0,49.442499999999995C5.1249648975007025,71.065,10.249929795001403,92.68749999999999,15.374894692502107,92.68749999999999C20.49985959000281,92.68749999999999,25.62482448750351,91.65583333333332,30.749789385004213,89.5925C35.87475428250492,87.52916666666668,40.99971918000561,31.703750000000014,46.124684077506316,31.703750000000014C51.2636899747262,31.703750000000014,56.40269587194609,102.86999999999999,61.54170176916597,102.86999999999999C66.66666666666667,102.86999999999999,71.79163156416737,86.48937500000001,76.91659646166808,80.87C82.04156135916878,75.25062500000001,87.16652625666947,69.15375,92.29149115417017,69.15375C97.41645605167088,69.15375,102.54142094917157,98.4925,107.66638584667227,98.4925C112.80539174389216,98.4925,117.94439764111205,71.21875,123.08340353833194,71.21875C128.20836843583263,71.21875,133.33333333333334,81.99750000000002,138.45829823083403,89.24375C143.58326312833475,96.49000000000001,148.70822802583544,114.69625,153.83319292333616,114.69625C164.09716371805675,114.69625,174.3611345127773,62.3325,184.6251053074979,9.96875L184.6251053074979,157.28125C174.3611345127773,172.865,164.09716371805675,188.44875,153.83319292333616,188.44875C148.70822802583544,188.44875,143.58326312833475,127.66250000000001,138.45829823083403,124.6075C133.33333333333334,121.55250000000001,128.20836843583263,120.025,123.08340353833194,120.025C117.94439764111205,120.025,112.80539174389216,137.08125,107.66638584667227,137.08125C102.54142094917157,137.08125,97.41645605167088,112.4025,92.29149115417017,112.4025C87.16652625666947,112.4025,82.04156135916878,114.33791666666667,76.91659646166808,118.20875C71.79163156416737,122.07958333333333,66.66666666666667,143.21,61.54170176916597,143.21C56.40269587194609,143.21,51.2636899747262,63.85249999999999,46.124684077506316,63.85249999999999C40.99971918000561,63.85249999999999,35.87475428250492,131.28875,30.749789385004213,131.28875C25.62482448750351,131.28875,20.49985959000281,130.38458333333332,15.374894692502107,128.57625000000002C10.249929795001403,126.7679166666667,5.1249648975007025,100.06645833333334,0,73.365Z" style="fill: rgb(134, 188, 220);"></path></g></g></g><g transform="translate(0,0)"><path class="background" d="M0,0h200v200h-200Z" style="fill: none;"></path><g><g class="mark-area role-mark marks"><path d="M0,73.365C5.1249648975007025,100.06645833333334,10.249929795001403,126.7679166666667,15.374894692502107,128.57625000000002C20.49985959000281,130.38458333333332,25.62482448750351,131.28875,30.749789385004213,131.28875C35.87475428250492,131.28875,40.99971918000561,63.85249999999999,46.124684077506316,63.85249999999999C51.2636899747262,63.85249999999999,56.40269587194609,143.21,61.54170176916597,143.21C66.66666666666667,143.21,71.79163156416737,122.07958333333333,76.91659646166808,118.20875C82.04156135916878,114.33791666666667,87.16652625666947,112.4025,92.29149115417017,112.4025C97.41645605167088,112.4025,102.54142094917157,137.08125,107.66638584667227,137.08125C112.80539174389216,137.08125,117.94439764111205,123.5625,123.08340353833194,123.5625C128.20836843583263,123.5625,133.33333333333334,125.38166666666666,138.45829823083403,129.01999999999998C143.58326312833475,132.6583333333333,148.70822802583544,192.13625,153.83319292333616,192.13625C164.09716371805675,192.13625,174.3611345127773,174.70875,184.6251053074979,157.28125L184.6251053074979,195.34375C174.3611345127773,197.671875,164.09716371805675,200,153.83319292333616,200C148.70822802583544,200,143.58326312833475,151.71375,138.45829823083403,151.71375C133.33333333333334,151.71375,128.20836843583263,173.275,123.08340353833194,173.275C117.94439764111205,173.275,112.80539174389216,160.8672191780822,107.66638584667227,158.225C102.54142094917157,155.59,97.41645605167088,154.2725,92.29149115417017,154.2725C87.16652625666947,154.2725,82.04156135916878,167.1329166666667,76.91659646166808,169.18375C71.79163156416737,171.23458333333332,66.66666666666667,172.26,61.54170176916597,172.26C56.40269587194609,172.26,51.2636899747262,93.02375,46.124684077506316,93.02375C40.99971918000561,93.02375,35.87475428250492,120.07687499999999,30.749789385004213,131.28875C25.62482448750351,142.50062499999999,20.49985959000281,160.29500000000002,15.374894692502107,160.29500000000002C10.249929795001403,160.29500000000002,5.1249648975007025,123.60625000000002,0,86.9175Z" style="fill: rgb(56, 135, 192);"></path></g></g></g><g transform="translate(0,0)"><path class="background" d="M0,0h200v200h-200Z" style="fill: none;"></path><g><g class="mark-area role-mark marks"><path d="M0,49.442499999999995C5.1249648975007025,71.065,10.249929795001403,92.68749999999999,15.374894692502107,92.68749999999999C20.49985959000281,92.68749999999999,25.62482448750351,90.68499999999999,30.749789385004213,86.68C35.87475428250492,82.67500000000003,40.99971918000561,29.048750000000013,46.124684077506316,29.048750000000013C51.2636899747262,29.048750000000013,56.40269587194609,102.86999999999999,61.54170176916597,102.86999999999999C66.66666666666667,102.86999999999999,71.79163156416737,86.48937500000001,76.91659646166808,80.87C82.04156135916878,75.25062500000001,87.16652625666947,69.15375,92.29149115417017,69.15375C97.41645605167088,69.15375,102.54142094917157,95.0925,107.66638584667227,95.0925C112.80539174389216,95.0925,117.94439764111205,71.21875,123.08340353833194,71.21875C128.20836843583263,71.21875,133.33333333333334,82.50166666666668,138.45829823083403,89.24375C143.58326312833475,95.98583333333335,148.70822802583544,111.67125,153.83319292333616,111.67125C164.09716371805675,111.67125,174.3611345127773,60.82,184.6251053074979,9.96875L184.6251053074979,9.96875C174.3611345127773,62.3325,164.09716371805675,114.69625,153.83319292333616,114.69625C148.70822802583544,114.69625,143.58326312833475,96.49000000000001,138.45829823083403,89.24375C133.33333333333334,81.99750000000002,128.20836843583263,71.21875,123.08340353833194,71.21875C117.94439764111205,71.21875,112.80539174389216,98.4925,107.66638584667227,98.4925C102.54142094917157,98.4925,97.41645605167088,69.15375,92.29149115417017,69.15375C87.16652625666947,69.15375,82.04156135916878,75.25062500000001,76.91659646166808,80.87C71.79163156416737,86.48937500000001,66.66666666666667,102.86999999999999,61.54170176916597,102.86999999999999C56.40269587194609,102.86999999999999,51.2636899747262,31.703750000000014,46.124684077506316,31.703750000000014C40.99971918000561,31.703750000000014,35.87475428250492,87.52916666666668,30.749789385004213,89.5925C25.62482448750351,91.65583333333332,20.49985959000281,92.68749999999999,15.374894692502107,92.68749999999999C10.249929795001403,92.68749999999999,5.1249648975007025,71.065,0,49.442499999999995Z" style="fill: rgb(175, 209, 231);"></path></g></g></g><g transform="translate(0,0)"><path class="background" d="M0,0h200v200h-200Z" style="fill: none;"></path><g><g class="mark-area role-mark marks"><path d="M0,73.365C5.1249648975007025,100.06645833333334,10.249929795001403,126.7679166666667,15.374894692502107,128.57625000000002C20.49985959000281,130.38458333333332,25.62482448750351,131.28875,30.749789385004213,131.28875C35.87475428250492,131.28875,40.99971918000561,63.85249999999999,46.124684077506316,63.85249999999999C51.2636899747262,63.85249999999999,56.40269587194609,143.21,61.54170176916597,143.21C66.66666666666667,143.21,71.79163156416737,122.07958333333333,76.91659646166808,118.20875C82.04156135916878,114.33791666666667,87.16652625666947,112.4025,92.29149115417017,112.4025C97.41645605167088,112.4025,102.54142094917157,137.08125,107.66638584667227,137.08125C112.80539174389216,137.08125,117.94439764111205,120.025,123.08340353833194,120.025C128.20836843583263,120.025,133.33333333333334,121.55250000000001,138.45829823083403,124.6075C143.58326312833475,127.66250000000001,148.70822802583544,188.44875,153.83319292333616,188.44875C164.09716371805675,188.44875,174.3611345127773,172.865,184.6251053074979,157.28125L184.6251053074979,157.28125C174.3611345127773,174.70875,164.09716371805675,192.13625,153.83319292333616,192.13625C148.70822802583544,192.13625,143.58326312833475,132.6583333333333,138.45829823083403,129.01999999999998C133.33333333333334,125.38166666666666,128.20836843583263,123.5625,123.08340353833194,123.5625C117.94439764111205,123.5625,112.80539174389216,137.08125,107.66638584667227,137.08125C102.54142094917157,137.08125,97.41645605167088,112.4025,92.29149115417017,112.4025C87.16652625666947,112.4025,82.04156135916878,114.33791666666667,76.91659646166808,118.20875C71.79163156416737,122.07958333333333,66.66666666666667,143.21,61.54170176916597,143.21C56.40269587194609,143.21,51.2636899747262,63.85249999999999,46.124684077506316,63.85249999999999C40.99971918000561,63.85249999999999,35.87475428250492,131.28875,30.749789385004213,131.28875C25.62482448750351,131.28875,20.49985959000281,130.38458333333332,15.374894692502107,128.57625000000002C10.249929795001403,126.7679166666667,5.1249648975007025,100.06645833333334,0,73.365Z" style="fill: rgb(91, 163, 207);"></path></g></g></g></g><g class="mark-group role-legend"><g transform="translate(218,0)"><path class="background" d="M0,0h58v79h-58Z" style="pointer-events: none; fill: none;"></path><g><g class="mark-group role-legend-entry"><g transform="translate(0,16)"><path class="background" d="M0,0h0v0h0Z" style="pointer-events: none; fill: none;"></path><g><g class="mark-group role-scope"><g transform="translate(0,0)"><path class="background" d="M0,0h22v11h-22Z" style="pointer-events: none; fill: none; opacity: 1;"></path><g><g class="mark-symbol role-legend-symbol" style="pointer-events: none;"><path transform="translate(6,6)" d="M5,0A5,5,0,1,1,-5,0A5,5,0,1,1,5,0" style="fill: rgb(175, 209, 231); stroke-width: 1.5; opacity: 1;"></path></g><g class="mark-text role-legend-label" style="pointer-events: none;"><text text-anchor="start" transform="translate(16,9)" style="font-family: sans-serif; font-size: 10px; fill: #000; opacity: 1;">3</text></g></g></g><g transform="translate(0,13)"><path class="background" d="M0,0h22v11h-22Z" style="pointer-events: none; fill: none; opacity: 1;"></path><g><g class="mark-symbol role-legend-symbol" style="pointer-events: none;"><path transform="translate(6,6)" d="M5,0A5,5,0,1,1,-5,0A5,5,0,1,1,5,0" style="fill: rgb(134, 188, 220); stroke-width: 1.5; opacity: 1;"></path></g><g class="mark-text role-legend-label" style="pointer-events: none;"><text text-anchor="start" transform="translate(16,9)" style="font-family: sans-serif; font-size: 10px; fill: #000; opacity: 1;">4</text></g></g></g><g transform="translate(0,26)"><path class="background" d="M0,0h22v11h-22Z" style="pointer-events: none; fill: none; opacity: 1;"></path><g><g class="mark-symbol role-legend-symbol" style="pointer-events: none;"><path transform="translate(6,6)" d="M5,0A5,5,0,1,1,-5,0A5,5,0,1,1,5,0" style="fill: rgb(91, 163, 207); stroke-width: 1.5; opacity: 1;"></path></g><g class="mark-text role-legend-label" style="pointer-events: none;"><text text-anchor="start" transform="translate(16,9)" style="font-family: sans-serif; font-size: 10px; fill: #000; opacity: 1;">5</text></g></g></g><g transform="translate(0,39)"><path class="background" d="M0,0h22v11h-22Z" style="pointer-events: none; fill: none; opacity: 1;"></path><g><g class="mark-symbol role-legend-symbol" style="pointer-events: none;"><path transform="translate(6,6)" d="M5,0A5,5,0,1,1,-5,0A5,5,0,1,1,5,0" style="fill: rgb(56, 135, 192); stroke-width: 1.5; opacity: 1;"></path></g><g class="mark-text role-legend-label" style="pointer-events: none;"><text text-anchor="start" transform="translate(16,9)" style="font-family: sans-serif; font-size: 10px; fill: #000; opacity: 1;">6</text></g></g></g><g transform="translate(0,52)"><path class="background" d="M0,0h22v11h-22Z" style="pointer-events: none; fill: none; opacity: 1;"></path><g><g class="mark-symbol role-legend-symbol" style="pointer-events: none;"><path transform="translate(6,6)" d="M5,0A5,5,0,1,1,-5,0A5,5,0,1,1,5,0" style="fill: rgb(27, 105, 173); stroke-width: 1.5; opacity: 1;"></path></g><g class="mark-text role-legend-label" style="pointer-events: none;"><text text-anchor="start" transform="translate(16,9)" style="font-family: sans-serif; font-size: 10px; fill: #000; opacity: 1;">8</text></g></g></g></g></g></g></g><g class="mark-text role-legend-title" style="pointer-events: none;"><text text-anchor="start" transform="translate(0,9)" style="font-family: sans-serif; font-size: 11px; font-weight: bold; fill: #000; opacity: 1;">Cylinders</text></g></g></g></g></g></g></g></g></svg>